<svg width="22" height="22" viewBox="0 0 22 22" fill="none" xmlns="http://www.w3.org/2000/svg">
<path d="M10.2912 16.5268L6.55008 20.242C6.42184 20.3702 6.26022 20.4331 6.06523 20.4307C5.87024 20.4282 5.70477 20.3598 5.56882 20.2253C5.42178 20.0894 5.34826 19.9238 5.34826 19.7286C5.34826 19.5336 5.42178 19.3626 5.56882 19.2156L10.2912 14.4932V11.7088H7.5068L2.80951 16.4061C2.68127 16.5343 2.51966 16.6003 2.32467 16.6041C2.12968 16.608 1.9611 16.5403 1.81895 16.401C1.67811 16.2651 1.60581 16.0995 1.60205 15.9043C1.5981 15.7093 1.6704 15.54 1.81895 15.3963L5.47321 11.7088H0.68059C0.491051 11.7088 0.330282 11.6418 0.198282 11.5077C0.066094 11.3736 0 11.2044 0 11C0 10.8105 0.0670341 10.645 0.201103 10.5036C0.335171 10.362 0.504402 10.2912 0.708795 10.2912H5.47321L1.75803 6.57828C1.62208 6.44233 1.5541 6.27686 1.5541 6.08187C1.5541 5.88688 1.62762 5.71586 1.77467 5.56882C1.91062 5.43287 2.07618 5.3649 2.27136 5.3649C2.46635 5.3649 2.63737 5.43287 2.78441 5.56882L7.5068 10.2912H10.2912V7.49523L5.59392 2.82615C5.46568 2.69792 5.40279 2.5363 5.40523 2.34131C5.40768 2.14632 5.47612 1.9753 5.61056 1.82826C5.74651 1.69231 5.91208 1.62433 6.10726 1.62433C6.30225 1.62433 6.47392 1.69231 6.62228 1.82826L10.2912 5.45459V0.708795C10.2912 0.519257 10.3582 0.353787 10.4923 0.212385C10.6264 0.0707957 10.7956 0 11 0C11.1895 0 11.355 0.0707957 11.4964 0.212385C11.638 0.353787 11.7088 0.519257 11.7088 0.708795V5.45459L15.4217 1.77467C15.5577 1.63872 15.7231 1.57074 15.9181 1.57074C16.1131 1.57074 16.2841 1.63872 16.4312 1.77467C16.5594 1.92171 16.6235 2.09282 16.6235 2.288C16.6235 2.48299 16.5556 2.64846 16.4196 2.78441L11.7088 7.49523V10.2912H14.5048L19.1854 5.61056C19.3137 5.48232 19.4753 5.4182 19.6703 5.4182C19.8652 5.4182 20.0363 5.48787 20.1833 5.62721C20.3193 5.76315 20.3872 5.92872 20.3872 6.1239C20.3872 6.31889 20.3193 6.48436 20.1833 6.62031L16.5454 10.2912H21.2912C21.4807 10.2912 21.6462 10.362 21.7876 10.5036C21.9292 10.645 22 10.8105 22 11C22 11.2044 21.9292 11.3736 21.7876 11.5077C21.6462 11.6418 21.4807 11.7088 21.2912 11.7088H16.5454L20.2138 15.4499C20.3497 15.5782 20.4177 15.7398 20.4177 15.9348C20.4177 16.1298 20.3497 16.2914 20.2138 16.4196C20.0744 16.5697 19.9072 16.6459 19.712 16.6484C19.517 16.6506 19.3515 16.5782 19.2156 16.4312L14.5048 11.7088H11.7088V14.4932L16.4312 19.2554C16.5671 19.3836 16.6351 19.5452 16.6351 19.7402C16.6351 19.9354 16.5616 20.1026 16.4145 20.242C16.2863 20.3856 16.1247 20.4575 15.9297 20.4575C15.7347 20.4575 15.5692 20.3895 15.4333 20.2535L11.7088 16.5268V21.3194C11.7088 21.5089 11.638 21.6697 11.4964 21.8017C11.355 21.9339 11.1895 22 11 22C10.7956 22 10.6264 21.933 10.4923 21.7989C10.3582 21.6648 10.2912 21.4956 10.2912 21.2912V16.5268Z" fill="#655653"/>
</svg>
