<svg width="25" height="25" viewBox="0 0 25 25" fill="none" xmlns="http://www.w3.org/2000/svg">
<mask id="mask0_148_446" style="mask-type:alpha" maskUnits="userSpaceOnUse" x="0" y="0" width="25" height="25">
<rect width="25" height="25" fill="#D9D9D9"/>
</mask>
<g mask="url(#mask0_148_446)">
<path d="M11.8498 10.7739L5.00548 7.86327C4.69419 7.72247 4.50574 7.48853 4.44011 7.16144C4.37449 6.83418 4.46216 6.54694 4.70314 6.29972L5.00548 5.98618C5.11989 5.87177 5.25157 5.79356 5.40053 5.75155C5.54949 5.70953 5.70175 5.7025 5.8573 5.73045L15.2651 7.3578L18.6237 3.99373C18.9555 3.66214 19.3528 3.49634 19.8156 3.49634C20.2787 3.49634 20.676 3.66214 21.0076 3.99373C21.3348 4.32099 21.4984 4.71717 21.4984 5.18228C21.4984 5.64755 21.3348 6.04373 21.0076 6.37082L17.6422 9.73488L19.2708 19.1372C19.2945 19.2897 19.2861 19.4421 19.2458 19.5945C19.2056 19.7468 19.1282 19.8801 19.0138 19.9945L18.7003 20.2836C18.453 20.5299 18.1639 20.6214 17.8328 20.5581C17.5019 20.4949 17.2703 20.307 17.138 19.9945L14.2261 13.1403L11.063 16.3153L11.6367 19.6427C11.6647 19.7729 11.6601 19.8969 11.6229 20.0148C11.5859 20.1327 11.5212 20.2357 11.4287 20.3239L11.1021 20.6482C10.9215 20.8246 10.7054 20.893 10.4537 20.8534C10.2021 20.8138 10.0142 20.6806 9.88985 20.4539L8.03152 16.9685L4.5461 15.1101C4.31937 14.9858 4.18621 14.7979 4.14662 14.5463C4.10704 14.2946 4.17544 14.0785 4.35183 13.8979L4.67605 13.5713C4.76425 13.4788 4.86728 13.4123 4.98517 13.3719C5.10305 13.3314 5.22709 13.3252 5.3573 13.3534L8.67918 13.9383L11.8498 10.7739Z" fill="#655653"/>
</g>
</svg>
