<svg width="80" height="90" viewBox="0 0 80 90" fill="none" xmlns="http://www.w3.org/2000/svg">
<path d="M24.9763 42.6925C24.1013 42.6925 23.3417 42.3625 22.6975 41.7025C22.0533 41.0425 21.7313 40.275 21.7313 39.4C21.7313 38.5242 22.0613 37.7642 22.7213 37.12C23.3813 36.4758 24.1488 36.1537 25.0238 36.1537C25.8988 36.1537 26.6583 36.4838 27.3025 37.1438C27.9467 37.8038 28.2687 38.5713 28.2687 39.4463C28.2687 40.3221 27.9388 41.0821 27.2788 41.7262C26.6188 42.3704 25.8513 42.6925 24.9763 42.6925ZM54.9762 42.6925C54.1012 42.6925 53.3417 42.3625 52.6975 41.7025C52.0533 41.0425 51.7312 40.275 51.7312 39.4C51.7312 38.5242 52.0613 37.7642 52.7213 37.12C53.3813 36.4758 54.1488 36.1537 55.0238 36.1537C55.8988 36.1537 56.6583 36.4838 57.3025 37.1438C57.9467 37.8038 58.2688 38.5713 58.2688 39.4463C58.2688 40.3221 57.9387 41.0821 57.2787 41.7262C56.6187 42.3704 55.8512 42.6925 54.9762 42.6925ZM6.9225 90C5.0525 90 3.43125 89.3138 2.05875 87.9413C0.68625 86.5688 0 84.9475 0 83.0775V60.9613C0 59.8079 0.378334 58.8625 1.135 58.125C1.89083 57.3875 2.79458 57.0158 3.84625 57.01H5V35C5 30.1408 5.91333 25.5942 7.74 21.36C9.5675 17.1267 12.0692 13.4217 15.245 10.245C18.4217 7.06917 22.1429 4.5675 26.4087 2.74C30.6746 0.913331 35.205 0 40 0C44.8592 0 49.4058 0.913331 53.64 2.74C57.8733 4.5675 61.5783 7.06917 64.755 10.245C67.9308 13.4217 70.4325 17.1267 72.26 21.36C74.0867 25.5942 75 30.1408 75 35V57.01H76.0575C77.1092 57.0158 78.0292 57.3875 78.8175 58.125C79.6058 58.8625 80 59.8079 80 60.9613V83.0775C80 84.9475 79.3138 86.5688 77.9413 87.9413C76.5688 89.3138 74.9475 90 73.0775 90H6.9225ZM3.84625 60.9613V83.0775C3.84625 83.9742 4.13458 84.7113 4.71125 85.2888C5.28875 85.8654 6.02583 86.1537 6.9225 86.1537H17.8363V60.9613H3.84625ZM21.6825 86.1537H38.0775V60.9613H21.6825V86.1537ZM8.84625 57.115H38.0775V4C30.4683 4.295 23.6942 7.34 17.755 13.135C11.8158 18.93 8.84625 26.2183 8.84625 35V57.115ZM41.9225 57.115H71.1537V35C71.1537 26.2183 68.1842 18.93 62.245 13.135C56.3058 7.34 49.5317 4.295 41.9225 4V57.115ZM41.9225 86.1537H58.4137V60.9613H41.9225V86.1537ZM62.26 86.1537H73.0775C73.9742 86.1537 74.7113 85.8654 75.2887 85.2888C75.8654 84.7113 76.1537 83.9742 76.1537 83.0775V60.9613H62.26V86.1537Z" fill="white"/>
</svg>
