<svg width="22" height="24" viewBox="0 0 22 24" fill="none" xmlns="http://www.w3.org/2000/svg">
<path d="M6.66033 11.3847C6.427 11.3847 6.22444 11.2967 6.05267 11.1207C5.88089 10.9447 5.795 10.74 5.795 10.5067C5.795 10.2731 5.883 10.0704 6.059 9.89867C6.235 9.72689 6.43967 9.641 6.673 9.641C6.90633 9.641 7.10889 9.729 7.28067 9.905C7.45244 10.081 7.53833 10.2857 7.53833 10.519C7.53833 10.7526 7.45033 10.9552 7.27433 11.127C7.09833 11.2988 6.89367 11.3847 6.66033 11.3847ZM14.6603 11.3847C14.427 11.3847 14.2244 11.2967 14.0527 11.1207C13.8809 10.9447 13.795 10.74 13.795 10.5067C13.795 10.2731 13.883 10.0704 14.059 9.89867C14.235 9.72689 14.4397 9.641 14.673 9.641C14.9063 9.641 15.1089 9.729 15.2807 9.905C15.4524 10.081 15.5383 10.2857 15.5383 10.519C15.5383 10.7526 15.4503 10.9552 15.2743 11.127C15.0983 11.2988 14.8937 11.3847 14.6603 11.3847ZM1.846 24C1.34733 24 0.915 23.817 0.549 23.451C0.183 23.085 0 22.6527 0 22.154V16.2563C0 15.9488 0.100889 15.6967 0.302667 15.5C0.504222 15.3033 0.745222 15.2042 1.02567 15.2027H1.33333V9.33333C1.33333 8.03756 1.57689 6.82511 2.064 5.696C2.55133 4.56711 3.21844 3.57911 4.06533 2.732C4.91244 1.88511 5.90478 1.218 7.04233 0.730666C8.17989 0.243555 9.388 0 10.6667 0C11.9624 0 13.1749 0.243555 14.304 0.730666C15.4329 1.218 16.4209 1.88511 17.268 2.732C18.1149 3.57911 18.782 4.56711 19.2693 5.696C19.7564 6.82511 20 8.03756 20 9.33333V15.2027H20.282C20.5624 15.2042 20.8078 15.3033 21.018 15.5C21.2282 15.6967 21.3333 15.9488 21.3333 16.2563V22.154C21.3333 22.6527 21.1503 23.085 20.7843 23.451C20.4183 23.817 19.986 24 19.4873 24H1.846ZM1.02567 16.2563V22.154C1.02567 22.3931 1.10256 22.5897 1.25633 22.7437C1.41033 22.8974 1.60689 22.9743 1.846 22.9743H4.75633V16.2563H1.02567ZM5.782 22.9743H10.154V16.2563H5.782V22.9743ZM2.359 15.2307H10.154V1.06667C8.12489 1.14533 6.31844 1.95733 4.73467 3.50267C3.15089 5.048 2.359 6.99156 2.359 9.33333V15.2307ZM11.1793 15.2307H18.9743V9.33333C18.9743 6.99156 18.1824 5.048 16.5987 3.50267C15.0149 1.95733 13.2084 1.14533 11.1793 1.06667V15.2307ZM11.1793 22.9743H15.577V16.2563H11.1793V22.9743ZM16.6027 22.9743H19.4873C19.7264 22.9743 19.923 22.8974 20.077 22.7437C20.2308 22.5897 20.3077 22.3931 20.3077 22.154V16.2563H16.6027V22.9743Z" fill="#655653"/>
</svg>
