<svg width="80" height="80" viewBox="0 0 80 80" fill="none" xmlns="http://www.w3.org/2000/svg">
<path d="M17.9533 31.3933C16.1785 31.3933 14.68 30.7841 13.4578 29.5656C12.2356 28.347 11.6244 26.8822 11.6244 25.1711C11.6244 23.4733 12.2311 21.9807 13.4444 20.6933C14.6585 19.4052 16.153 18.7611 17.9278 18.7611C19.7026 18.7611 21.2011 19.3981 22.4233 20.6722C23.6456 21.9463 24.2567 23.4404 24.2567 25.1544C24.2567 26.8693 23.6496 28.3378 22.4356 29.56C21.2222 30.7822 19.7281 31.3933 17.9533 31.3933ZM10.9389 80C9.65222 80 8.53296 79.56 7.58111 78.68C6.62926 77.7993 6.15333 76.7007 6.15333 75.3844C4.43407 75.3844 2.97889 74.7541 1.78778 73.4933C0.595926 72.2326 0 70.7548 0 69.06V51.2822C0 50.4104 0.294815 49.6796 0.884444 49.09C1.47407 48.5004 2.20482 48.2056 3.07667 48.2056H11.6244V44.9456C11.6244 42.6796 12.4078 40.7348 13.9744 39.1111C15.5411 37.4874 17.4641 36.6756 19.7433 36.6756C21.0085 36.6756 22.2422 36.9633 23.4444 37.5389C24.6467 38.1144 25.7007 38.9207 26.6067 39.9578L30.9311 45.1456C31.4496 45.7544 31.9867 46.3067 32.5422 46.8022C33.0978 47.2978 33.7004 47.7656 34.35 48.2056H67.6922V10.2389C67.6922 8.39667 67.1026 6.79963 65.9233 5.44778C64.7448 4.09519 63.2489 3.41889 61.4356 3.41889C60.543 3.41889 59.6874 3.56407 58.8689 3.85444C58.0504 4.14556 57.3248 4.60704 56.6922 5.23889L51.0856 11.06C51.3989 12.3481 51.44 13.6404 51.2089 14.9367C50.9785 16.2322 50.53 17.4441 49.8633 18.5722L41.18 10.0167C42.2933 9.26334 43.4859 8.78185 44.7578 8.57223C46.0304 8.3626 47.3048 8.49445 48.5811 8.96778L54.1878 3.23889C55.1626 2.23223 56.2678 1.44074 57.5033 0.864448C58.7389 0.288151 60.0496 0 61.4356 0C64.1519 0 66.4433 1.0126 68.31 3.03778C70.1774 5.06223 71.1111 7.4626 71.1111 10.2389V48.2056H76.9233C77.7952 48.2056 78.5259 48.5004 79.1156 49.09C79.7052 49.6796 80 50.4104 80 51.2822V69.06C80 70.7548 79.4041 72.2326 78.2122 73.4933C77.0211 74.7541 75.5659 75.3844 73.8467 75.3844C73.8467 76.7007 73.3689 77.7993 72.4133 78.68C71.4585 79.56 70.3378 80 69.0511 80H10.9389ZM6.15333 71.9656H73.8467C74.6437 71.9656 75.2989 71.6807 75.8122 71.1111C76.3248 70.5415 76.5811 69.8578 76.5811 69.06V51.6245H3.41889V69.06C3.41889 69.8578 3.67519 70.5415 4.18778 71.1111C4.70111 71.6807 5.3563 71.9656 6.15333 71.9656ZM6.15333 71.9656H3.41889H76.5811H6.15333Z" fill="white"/>
</svg>
