<svg width="31" height="30" viewBox="0 0 31 30" fill="none" xmlns="http://www.w3.org/2000/svg">
<path d="M5.2168 22.5V10.625C5.2168 9.13316 5.80943 7.70242 6.86432 6.64752C7.91921 5.59263 9.34995 5 10.8418 5H19.5918C20.3305 5 21.0619 5.14549 21.7444 5.42818C22.4268 5.71086 23.0469 6.12519 23.5693 6.64752C24.0916 7.16985 24.5059 7.78995 24.7886 8.47241C25.0713 9.15486 25.2168 9.88631 25.2168 10.625V19.375C25.2168 20.1137 25.0713 20.8451 24.7886 21.5276C24.5059 22.21 24.0916 22.8301 23.5693 23.3525C23.0469 23.8748 22.4268 24.2891 21.7444 24.5718C21.0619 24.8545 20.3305 25 19.5918 25H7.7168C7.05376 25 6.41787 24.7366 5.94903 24.2678C5.48019 23.7989 5.2168 23.163 5.2168 22.5Z" stroke="#FEFEFE" stroke-width="2" stroke-linecap="round" stroke-linejoin="round"/>
<path d="M10.2168 15H14.5918C15.2548 15 15.8907 15.2634 16.3596 15.7322C16.8284 16.2011 17.0918 16.837 17.0918 17.5C17.0918 18.163 16.8284 18.7989 16.3596 19.2678C15.8907 19.7366 15.2548 20 14.5918 20H10.2168V11.25C10.2168 10.9185 10.3485 10.6005 10.5829 10.3661C10.8173 10.1317 11.1353 10 11.4668 10H13.3418C14.0048 10 14.6407 10.2634 15.1096 10.7322C15.5784 11.2011 15.8418 11.837 15.8418 12.5C15.8418 13.163 15.5784 13.7989 15.1096 14.2678C14.6407 14.7366 14.0048 15 13.3418 15H11.4668M20.2168 20H20.2293" stroke="#FEFEFE" stroke-width="2" stroke-linecap="round" stroke-linejoin="round"/>
</svg>
