<svg width="30" height="30" viewBox="0 0 30 30" fill="none" xmlns="http://www.w3.org/2000/svg">
<path d="M5 22.5V10.625C5 9.13316 5.59263 7.70242 6.64752 6.64752C7.70242 5.59263 9.13316 5 10.625 5H19.375C20.1137 5 20.8451 5.14549 21.5276 5.42818C22.21 5.71086 22.8301 6.12519 23.3525 6.64752C23.8748 7.16985 24.2891 7.78995 24.5718 8.47241C24.8545 9.15486 25 9.88631 25 10.625V19.375C25 20.1137 24.8545 20.8451 24.5718 21.5276C24.2891 22.21 23.8748 22.8301 23.3525 23.3525C22.8301 23.8748 22.21 24.2891 21.5276 24.5718C20.8451 24.8545 20.1137 25 19.375 25H7.5C6.83696 25 6.20107 24.7366 5.73223 24.2678C5.26339 23.7989 5 23.163 5 22.5Z" stroke="white" stroke-width="2" stroke-linecap="round" stroke-linejoin="round"/>
<path d="M10 15H14.375C15.038 15 15.6739 15.2634 16.1428 15.7322C16.6116 16.2011 16.875 16.837 16.875 17.5C16.875 18.163 16.6116 18.7989 16.1428 19.2678C15.6739 19.7366 15.038 20 14.375 20H10V11.25C10 10.9185 10.1317 10.6005 10.3661 10.3661C10.6005 10.1317 10.9185 10 11.25 10H13.125C13.788 10 14.4239 10.2634 14.8928 10.7322C15.3616 11.2011 15.625 11.837 15.625 12.5C15.625 13.163 15.3616 13.7989 14.8928 14.2678C14.4239 14.7366 13.788 15 13.125 15H11.25M20 20H20.0125" stroke="white" stroke-width="2" stroke-linecap="round" stroke-linejoin="round"/>
</svg>
