<svg width="25" height="25" viewBox="0 0 25 25" fill="none" xmlns="http://www.w3.org/2000/svg">
<mask id="mask0_175_169" style="mask-type:alpha" maskUnits="userSpaceOnUse" x="0" y="0" width="25" height="25">
<rect width="25" height="25" fill="#D9D9D9"/>
</mask>
<g mask="url(#mask0_175_169)">
<path d="M7.9875 19.2428V20.4675C7.9875 20.7139 7.90104 20.9233 7.72813 21.0957C7.55538 21.268 7.34549 21.3542 7.09844 21.3542C6.85156 21.3542 6.64245 21.268 6.47109 21.0957C6.29974 20.9233 6.21406 20.7139 6.21406 20.4675V18.6553C5.79653 18.4456 5.43767 18.0905 5.1375 17.5902C4.8375 17.0898 4.6875 16.5381 4.6875 15.935V6.0243C4.6875 4.84149 5.31233 3.97578 6.56198 3.42716C7.81163 2.87855 9.79444 2.60425 12.5104 2.60425C15.2625 2.60425 17.2509 2.87239 18.4755 3.40868C19.7002 3.94496 20.3125 4.81684 20.3125 6.0243V15.935C20.3125 16.5381 20.1625 17.0898 19.8625 17.5902C19.5623 18.0905 19.2035 18.4456 18.7859 18.6553V20.4675C18.7859 20.7139 18.6996 20.9233 18.5268 21.0957C18.3539 21.268 18.144 21.3542 17.8971 21.3542C17.6503 21.3542 17.4411 21.268 17.2695 21.0957C17.0982 20.9233 17.0125 20.7139 17.0125 20.4675V19.2428H7.9875ZM5.99635 11.3076H19.0036V6.74826H5.99635V11.3076ZM8.68255 16.5652C9.04297 16.5652 9.34818 16.4391 9.59818 16.1868C9.84818 15.9345 9.97318 15.6281 9.97318 15.2675C9.97318 14.9071 9.84705 14.6004 9.59479 14.3475C9.34253 14.0944 9.0362 13.9678 8.67578 13.9678C8.31519 13.9678 8.00842 14.0955 7.75547 14.3509C7.50234 14.6061 7.37578 14.9139 7.37578 15.2743C7.37578 15.6349 7.50347 15.9402 7.75885 16.1902C8.01406 16.4402 8.32196 16.5652 8.68255 16.5652ZM16.3242 16.5652C16.6848 16.5652 16.9916 16.4391 17.2445 16.1868C17.4977 15.9345 17.6242 15.6281 17.6242 15.2675C17.6242 14.9071 17.4965 14.6004 17.2411 14.3475C16.9859 14.0944 16.678 13.9678 16.3174 13.9678C15.957 13.9678 15.6518 14.0955 15.4018 14.3509C15.1518 14.6061 15.0268 14.9139 15.0268 15.2743C15.0268 15.6349 15.153 15.9402 15.4052 16.1902C15.6575 16.4402 15.9638 16.5652 16.3242 16.5652ZM6.05911 5.4394H18.9557C18.6578 4.9467 17.9827 4.56909 16.9305 4.30659C15.878 4.04427 14.4083 3.9131 12.5214 3.9131C10.4785 3.9131 8.95095 4.03958 7.9388 4.29253C6.92648 4.54565 6.29991 4.92795 6.05911 5.4394ZM8.10755 17.9342H16.8924C17.4839 17.9342 17.9837 17.7154 18.3917 17.2779C18.7997 16.8406 19.0036 16.3284 19.0036 15.7412V12.6162H5.99635V15.7412C5.99635 16.3284 6.20035 16.8406 6.60833 17.2779C7.01632 17.7154 7.51606 17.9342 8.10755 17.9342Z" fill="#655653"/>
</g>
</svg>
