<svg width="25" height="25" viewBox="0 0 25 25" fill="none" xmlns="http://www.w3.org/2000/svg">
<mask id="mask0_148_506" style="mask-type:alpha" maskUnits="userSpaceOnUse" x="0" y="0" width="25" height="25">
<rect width="25" height="25" fill="#D9D9D9"/>
</mask>
<g mask="url(#mask0_148_506)">
<path d="M5.34193 21.3541C5.15651 21.3541 5.00113 21.2911 4.87578 21.165C4.75026 21.0388 4.6875 20.8826 4.6875 20.6963C4.6875 20.5098 4.75026 20.3547 4.87578 20.2309C5.00113 20.1071 5.15651 20.0452 5.34193 20.0452H19.6581C19.8435 20.0452 19.9989 20.1083 20.1242 20.2346C20.2497 20.3606 20.3125 20.5168 20.3125 20.7033C20.3125 20.8896 20.2497 21.0446 20.1242 21.1684C19.9989 21.2922 19.8435 21.3541 19.6581 21.3541H5.34193ZM8.28724 17.5614C7.28533 17.5614 6.4349 17.2181 5.73594 16.5317C5.03698 15.8452 4.6875 15.0088 4.6875 14.0223V4.97466C4.6875 4.60851 4.81745 4.29549 5.07734 4.03559C5.33724 3.7757 5.65026 3.64575 6.01641 3.64575H20.7266C21.1856 3.64575 21.5786 3.80573 21.9055 4.1257C22.2324 4.44567 22.3958 4.83212 22.3958 5.28508V8.51685C22.3958 8.9698 22.2324 9.35626 21.9055 9.67622C21.5786 9.99619 21.1856 10.1562 20.7266 10.1562H18.4388V14.0223C18.4388 15.0088 18.0893 15.8452 17.3904 16.5317C16.6914 17.2181 15.841 17.5614 14.8391 17.5614H8.28724ZM8.28724 16.2525H14.8391C15.4571 16.2525 15.9935 16.0297 16.4482 15.584C16.9029 15.1385 17.1302 14.6167 17.1302 14.0184V4.95461H5.99635V14.0221C5.99635 14.6205 6.22543 15.1418 6.68359 15.5861C7.14175 16.0304 7.6763 16.2525 8.28724 16.2525ZM18.4388 8.84731H20.7266C20.8267 8.84731 20.9118 8.81563 20.9818 8.75226C21.0519 8.6889 21.087 8.61042 21.087 8.51685V5.28508C21.087 5.1915 21.0519 5.11303 20.9818 5.04966C20.9118 4.98629 20.8267 4.95461 20.7266 4.95461H18.4388V8.84731ZM8.28724 16.2525H5.99635H17.1302H8.28724Z" fill="#655653"/>
</g>
</svg>
