<svg width="20" height="20" viewBox="0 0 20 20" fill="none" xmlns="http://www.w3.org/2000/svg">
<path d="M18.6634 20C16.5561 20 14.3959 19.4724 12.1828 18.4172C9.96969 17.3618 7.91354 15.8805 6.01438 13.9734C4.11542 12.0666 2.63823 10.0105 1.58281 7.80531C0.527604 5.60011 0 3.44385 0 1.33656C0 0.954688 0.125 0.636457 0.375 0.381874C0.625 0.127291 0.9375 0 1.3125 0H4.40375C4.74354 0 5.04 0.10698 5.29313 0.320938C5.54646 0.534896 5.71802 0.809375 5.80781 1.14437L6.42781 4.125C6.48552 4.47437 6.4751 4.77969 6.39656 5.04094C6.31802 5.30219 6.17938 5.51615 5.98063 5.68281L3.23812 8.24031C3.75083 9.17135 4.31771 10.0364 4.93875 10.8353C5.55979 11.6343 6.22208 12.391 6.92563 13.1056C7.65146 13.8317 8.43271 14.5068 9.26937 15.1309C10.1058 15.7551 11.0241 16.3445 12.0241 16.8991L14.6972 14.1778C14.9007 13.9582 15.1295 13.8136 15.3834 13.7441C15.6374 13.6743 15.9182 13.6602 16.2259 13.7019L18.8556 14.2403C19.1954 14.3236 19.4711 14.4948 19.6828 14.7538C19.8943 15.0125 20 15.3094 20 15.6444V18.6875C20 19.0625 19.8727 19.375 19.6181 19.625C19.3635 19.875 19.0453 20 18.6634 20ZM2.65156 7.06719L5.05063 4.86062C5.13063 4.79646 5.18271 4.70833 5.20688 4.59625C5.23083 4.48396 5.22677 4.37979 5.19469 4.28375L4.63937 1.63469C4.60729 1.50635 4.55125 1.41021 4.47125 1.34625C4.39104 1.28208 4.28687 1.25 4.15875 1.25H1.59375C1.4975 1.25 1.4174 1.28208 1.35344 1.34625C1.28927 1.41021 1.25719 1.49031 1.25719 1.58656C1.28115 2.44073 1.415 3.3325 1.65875 4.26188C1.90229 5.19146 2.23323 6.12656 2.65156 7.06719ZM13.2141 17.4856C14.0584 17.904 14.9586 18.2132 15.9147 18.4134C16.8705 18.6139 17.7034 18.7212 18.4134 18.7356C18.5097 18.7356 18.5898 18.7035 18.6537 18.6394C18.7179 18.5752 18.75 18.4951 18.75 18.3991V15.8894C18.75 15.7613 18.7179 15.6571 18.6537 15.5769C18.5898 15.4969 18.4936 15.4408 18.3653 15.4087L16.0528 14.935C15.9568 14.9029 15.8727 14.899 15.8006 14.9231C15.7283 14.9471 15.6522 14.9992 15.5722 15.0794L13.2141 17.4856Z" fill="#C6C0BA"/>
</svg>
