<svg width="22" height="22" viewBox="0 0 22 22" fill="none" xmlns="http://www.w3.org/2000/svg">
<path d="M11.055 22C10.1383 22 9.35917 21.6792 8.7175 21.0375C8.07583 20.3958 7.755 19.6167 7.755 18.7C7.755 18.0033 7.95667 17.3754 8.36 16.8162C8.76333 16.2571 9.27667 15.8583 9.9 15.62V8.58L6.1325 13.145C6.27917 13.4017 6.39375 13.6721 6.47625 13.9563C6.55875 14.2404 6.6 14.5383 6.6 14.85C6.6 15.7667 6.27917 16.5458 5.6375 17.1875C4.99583 17.8292 4.21667 18.15 3.3 18.15C2.38333 18.15 1.60417 17.8292 0.9625 17.1875C0.320833 16.5458 0 15.7667 0 14.85C0 13.9333 0.320833 13.1542 0.9625 12.5125C1.60417 11.8708 2.38333 11.55 3.3 11.55C3.50167 11.55 3.69417 11.5638 3.8775 11.5913C4.06083 11.6188 4.24417 11.6692 4.4275 11.7425L9.1575 6.0225C8.7175 5.71083 8.36458 5.32125 8.09875 4.85375C7.83292 4.38625 7.7 3.86833 7.7 3.3C7.7 2.38333 8.02083 1.60417 8.6625 0.9625C9.30417 0.320833 10.0833 0 11 0C11.9167 0 12.6958 0.320833 13.3375 0.9625C13.9792 1.60417 14.3 2.38333 14.3 3.3C14.3 3.86833 14.1671 4.38625 13.9012 4.85375C13.6354 5.32125 13.2825 5.71083 12.8425 6.0225L17.5725 11.7425C17.7558 11.6692 17.9392 11.6188 18.1225 11.5913C18.3058 11.5638 18.4983 11.55 18.7 11.55C19.6167 11.55 20.3958 11.8708 21.0375 12.5125C21.6792 13.1542 22 13.9333 22 14.85C22 15.7667 21.6792 16.5458 21.0375 17.1875C20.3958 17.8292 19.6167 18.15 18.7 18.15C17.7833 18.15 17.0042 17.8292 16.3625 17.1875C15.7208 16.5458 15.4 15.7667 15.4 14.85C15.4 14.5383 15.4413 14.2404 15.5238 13.9563C15.6063 13.6721 15.7208 13.4017 15.8675 13.145L12.1 8.58V15.565C12.76 15.785 13.3008 16.1792 13.7225 16.7475C14.1442 17.3158 14.355 17.9667 14.355 18.7C14.355 19.6167 14.0342 20.3958 13.3925 21.0375C12.7508 21.6792 11.9717 22 11.055 22ZM11.055 19.8C11.3667 19.8 11.6279 19.6946 11.8387 19.4837C12.0496 19.2729 12.155 19.0117 12.155 18.7C12.155 18.3883 12.0496 18.1271 11.8387 17.9163C11.6279 17.7054 11.3667 17.6 11.055 17.6C10.7433 17.6 10.4821 17.7054 10.2713 17.9163C10.0604 18.1271 9.955 18.3883 9.955 18.7C9.955 19.0117 10.0604 19.2729 10.2713 19.4837C10.4821 19.6946 10.7433 19.8 11.055 19.8ZM3.3 15.95C3.61167 15.95 3.87292 15.8446 4.08375 15.6338C4.29458 15.4229 4.4 15.1617 4.4 14.85C4.4 14.5383 4.29458 14.2771 4.08375 14.0663C3.87292 13.8554 3.61167 13.75 3.3 13.75C2.98833 13.75 2.72708 13.8554 2.51625 14.0663C2.30542 14.2771 2.2 14.5383 2.2 14.85C2.2 15.1617 2.30542 15.4229 2.51625 15.6338C2.72708 15.8446 2.98833 15.95 3.3 15.95ZM18.7 15.95C19.0117 15.95 19.2729 15.8446 19.4837 15.6338C19.6946 15.4229 19.8 15.1617 19.8 14.85C19.8 14.5383 19.6946 14.2771 19.4837 14.0663C19.2729 13.8554 19.0117 13.75 18.7 13.75C18.3883 13.75 18.1271 13.8554 17.9163 14.0663C17.7054 14.2771 17.6 14.5383 17.6 14.85C17.6 15.1617 17.7054 15.4229 17.9163 15.6338C18.1271 15.8446 18.3883 15.95 18.7 15.95ZM11 4.4C11.3117 4.4 11.5729 4.29458 11.7838 4.08375C11.9946 3.87292 12.1 3.61167 12.1 3.3C12.1 2.98833 11.9946 2.72708 11.7838 2.51625C11.5729 2.30542 11.3117 2.2 11 2.2C10.6883 2.2 10.4271 2.30542 10.2163 2.51625C10.0054 2.72708 9.9 2.98833 9.9 3.3C9.9 3.61167 10.0054 3.87292 10.2163 4.08375C10.4271 4.29458 10.6883 4.4 11 4.4Z" fill="#8A728E"/>
</svg>
