<svg width="31" height="30" viewBox="0 0 31 30" fill="none" xmlns="http://www.w3.org/2000/svg">
<path d="M21.2226 10.3445C21.9681 10.3445 22.5726 9.74012 22.5726 8.99453C22.5726 8.24895 21.9681 7.64453 21.2226 7.64453C20.477 7.64453 19.8726 8.24895 19.8726 8.99453C19.8726 9.74012 20.477 10.3445 21.2226 10.3445Z" fill="#FEFEFE"/>
<path d="M15.2168 9.22314C14.0743 9.22314 12.9574 9.56196 12.0074 10.1967C11.0574 10.8315 10.3169 11.7337 9.87968 12.7893C9.44244 13.8449 9.32804 15.0064 9.55094 16.127C9.77385 17.2476 10.324 18.277 11.132 19.0849C11.9399 19.8928 12.9692 20.443 14.0898 20.6659C15.2104 20.8888 16.3719 20.7744 17.4275 20.3372C18.4831 19.8999 19.3853 19.1595 20.0201 18.2095C20.6549 17.2595 20.9937 16.1426 20.9937 15C20.9939 14.2413 20.8447 13.49 20.5545 12.789C20.2642 12.088 19.8387 11.4511 19.3022 10.9146C18.7658 10.3781 18.1288 9.95262 17.4278 9.66239C16.7268 9.37216 15.9755 9.2229 15.2168 9.22314ZM15.2168 18.75C14.4751 18.75 13.7501 18.5301 13.1334 18.118C12.5167 17.706 12.0361 17.1203 11.7523 16.4351C11.4684 15.7499 11.3942 14.9959 11.5389 14.2684C11.6836 13.541 12.0407 12.8728 12.5652 12.3484C13.0896 11.8239 13.7578 11.4668 14.4852 11.3221C15.2127 11.1774 15.9667 11.2516 16.6519 11.5355C17.3371 11.8193 17.9228 12.2999 18.3348 12.9166C18.7469 13.5333 18.9668 14.2583 18.9668 15C18.9668 15.9946 18.5717 16.9484 17.8685 17.6517C17.1652 18.3549 16.2114 18.75 15.2168 18.75Z" fill="#FEFEFE"/>
<path d="M15.2168 5.77688C18.2205 5.77688 18.5768 5.78812 19.7627 5.8425C20.4761 5.85018 21.1828 5.98118 21.8515 6.22969C22.3366 6.41715 22.7773 6.70398 23.145 7.07176C23.5128 7.43954 23.7996 7.88015 23.9871 8.36531C24.2356 9.03404 24.3666 9.7407 24.3743 10.4541C24.4287 11.64 24.4399 11.9962 24.4399 15.0009C24.4399 18.0056 24.4287 18.36 24.3743 19.5459C24.3666 20.2593 24.2356 20.966 23.9871 21.6347C23.7996 22.1199 23.5128 22.5605 23.145 22.9282C22.7773 23.296 22.3366 23.5828 21.8515 23.7703C21.1828 24.0188 20.4761 24.1498 19.7627 24.1575C18.5768 24.2119 18.2205 24.2231 15.2168 24.2231C12.213 24.2231 11.8568 24.2119 10.6709 24.1575C9.95749 24.1498 9.25083 24.0188 8.58211 23.7703C8.09695 23.5828 7.65634 23.296 7.28856 22.9282C6.92078 22.5605 6.63395 22.1199 6.44648 21.6347C6.19797 20.966 6.06698 20.2593 6.0593 19.5459C6.00492 18.36 5.99367 18.0037 5.99367 15C5.99367 11.9963 6.00492 11.64 6.0593 10.4541C6.06698 9.7407 6.19797 9.03404 6.44648 8.36531C6.63395 7.88015 6.92078 7.43954 7.28856 7.07176C7.65634 6.70398 8.09695 6.41715 8.58211 6.22969C9.25083 5.98118 9.95749 5.85018 10.6709 5.8425C11.8568 5.78812 12.213 5.77688 15.2168 5.77688ZM15.2168 3.75C12.1615 3.75 11.778 3.76313 10.578 3.8175C9.64501 3.83621 8.72191 4.0131 7.84805 4.34063C7.10072 4.62986 6.42201 5.07194 5.85537 5.63858C5.28874 6.20521 4.84665 6.88392 4.55742 7.63125C4.22979 8.50541 4.0529 9.42883 4.0343 10.3622C3.97992 11.5622 3.9668 11.9438 3.9668 15C3.9668 18.0562 3.97992 18.4388 4.0343 19.6388C4.05301 20.5718 4.2299 21.4949 4.55742 22.3688C4.84665 23.1161 5.28874 23.7948 5.85537 24.3614C6.42201 24.9281 7.10072 25.3701 7.84805 25.6594C8.72221 25.987 9.64563 26.1639 10.579 26.1825C11.779 26.2369 12.1615 26.25 15.2168 26.25C18.2721 26.25 18.6555 26.2369 19.8555 26.1825C20.7889 26.1639 21.7123 25.987 22.5865 25.6594C23.3338 25.3701 24.0125 24.9281 24.5792 24.3614C25.1458 23.7948 25.5879 23.1161 25.8771 22.3688C26.2044 21.4945 26.381 20.5711 26.3993 19.6378C26.4537 18.4378 26.4668 18.0562 26.4668 15C26.4668 11.9438 26.4537 11.5613 26.3993 10.3612C26.3806 9.42821 26.2037 8.50511 25.8762 7.63125C25.5869 6.88392 25.1449 6.20521 24.5782 5.63858C24.0116 5.07194 23.3329 4.62986 22.5855 4.34063C21.7113 4.01331 20.7879 3.83675 19.8546 3.81844C18.6546 3.76219 18.273 3.75 15.2168 3.75Z" fill="#FEFEFE"/>
</svg>
