<svg width="30" height="30" viewBox="0 0 30 30" fill="none" xmlns="http://www.w3.org/2000/svg">
<path d="M21.0053 10.3443C21.7509 10.3443 22.3553 9.73993 22.3553 8.99435C22.3553 8.24876 21.7509 7.64435 21.0053 7.64435C20.2597 7.64435 19.6553 8.24876 19.6553 8.99435C19.6553 9.73993 20.2597 10.3443 21.0053 10.3443Z" fill="white"/>
<path d="M14.9995 9.22314C13.857 9.22314 12.7401 9.56195 11.7901 10.1967C10.8401 10.8315 10.0996 11.7337 9.6624 12.7893C9.22516 13.8449 9.11076 15.0064 9.33366 16.127C9.55656 17.2476 10.1068 18.277 10.9147 19.0849C11.7226 19.8928 12.7519 20.443 13.8725 20.6659C14.9931 20.8888 16.1547 20.7744 17.2102 20.3372C18.2658 19.8999 19.1681 19.1595 19.8028 18.2095C20.4376 17.2595 20.7764 16.1426 20.7764 15C20.7767 14.2413 20.6274 13.49 20.3372 12.789C20.0469 12.088 19.6214 11.4511 19.085 10.9146C18.5485 10.3781 17.9115 9.95261 17.2105 9.66238C16.5095 9.37215 15.7582 9.2229 14.9995 9.22314ZM14.9995 18.75C14.2579 18.75 13.5328 18.5301 12.9161 18.118C12.2995 17.706 11.8188 17.1203 11.535 16.4351C11.2512 15.7499 11.1769 14.9959 11.3216 14.2684C11.4663 13.541 11.8234 12.8728 12.3479 12.3484C12.8723 11.8239 13.5405 11.4668 14.2679 11.3221C14.9954 11.1774 15.7494 11.2516 16.4346 11.5355C17.1198 11.8193 17.7055 12.2999 18.1175 12.9166C18.5296 13.5333 18.7495 14.2583 18.7495 15C18.7495 15.9946 18.3544 16.9484 17.6512 17.6517C16.9479 18.3549 15.9941 18.75 14.9995 18.75Z" fill="white"/>
<path d="M15 5.77688C18.0037 5.77688 18.36 5.78812 19.5459 5.8425C20.2593 5.85018 20.966 5.98118 21.6347 6.22969C22.1199 6.41715 22.5605 6.70398 22.9282 7.07176C23.296 7.43954 23.5828 7.88015 23.7703 8.36531C24.0188 9.03404 24.1498 9.7407 24.1575 10.4541C24.2119 11.64 24.2231 11.9962 24.2231 15.0009C24.2231 18.0056 24.2119 18.36 24.1575 19.5459C24.1498 20.2593 24.0188 20.966 23.7703 21.6347C23.5828 22.1199 23.296 22.5605 22.9282 22.9282C22.5605 23.296 22.1199 23.5828 21.6347 23.7703C20.966 24.0188 20.2593 24.1498 19.5459 24.1575C18.36 24.2119 18.0037 24.2231 15 24.2231C11.9963 24.2231 11.64 24.2119 10.4541 24.1575C9.7407 24.1498 9.03404 24.0188 8.36531 23.7703C7.88015 23.5828 7.43954 23.296 7.07176 22.9282C6.70398 22.5605 6.41715 22.1199 6.22969 21.6347C5.98118 20.966 5.85018 20.2593 5.8425 19.5459C5.78812 18.36 5.77688 18.0037 5.77688 15C5.77688 11.9963 5.78812 11.64 5.8425 10.4541C5.85018 9.7407 5.98118 9.03404 6.22969 8.36531C6.41715 7.88015 6.70398 7.43954 7.07176 7.07176C7.43954 6.70398 7.88015 6.41715 8.36531 6.22969C9.03404 5.98118 9.7407 5.85018 10.4541 5.8425C11.64 5.78812 11.9963 5.77688 15 5.77688ZM15 3.75C11.9447 3.75 11.5613 3.76313 10.3612 3.8175C9.42821 3.83621 8.50511 4.0131 7.63125 4.34063C6.88392 4.62986 6.20521 5.07194 5.63858 5.63858C5.07194 6.20521 4.62986 6.88392 4.34063 7.63125C4.01299 8.50541 3.83611 9.42883 3.8175 10.3622C3.76313 11.5622 3.75 11.9438 3.75 15C3.75 18.0562 3.76313 18.4388 3.8175 19.6388C3.83621 20.5718 4.0131 21.4949 4.34063 22.3688C4.62986 23.1161 5.07194 23.7948 5.63858 24.3614C6.20521 24.9281 6.88392 25.3701 7.63125 25.6594C8.50541 25.987 9.42883 26.1639 10.3622 26.1825C11.5622 26.2369 11.9447 26.25 15 26.25C18.0553 26.25 18.4388 26.2369 19.6388 26.1825C20.5721 26.1639 21.4955 25.987 22.3697 25.6594C23.117 25.3701 23.7957 24.9281 24.3624 24.3614C24.929 23.7948 25.3711 23.1161 25.6603 22.3688C25.9876 21.4945 26.1642 20.5711 26.1825 19.6378C26.2369 18.4378 26.25 18.0562 26.25 15C26.25 11.9438 26.2369 11.5613 26.1825 10.3612C26.1638 9.42821 25.9869 8.50511 25.6594 7.63125C25.3701 6.88392 24.9281 6.20521 24.3614 5.63858C23.7948 5.07194 23.1161 4.62986 22.3688 4.34063C21.4945 4.01331 20.5711 3.83675 19.6378 3.81844C18.4378 3.76219 18.0562 3.75 15 3.75Z" fill="white"/>
</svg>
