<svg width="24" height="24" viewBox="0 0 24 24" fill="none" xmlns="http://www.w3.org/2000/svg">
<path d="M2.19225 24C1.57775 24 1.05875 23.7882 0.63525 23.3647C0.21175 22.9412 0 22.4222 0 21.8077V2.19225C0 1.57775 0.21175 1.05875 0.63525 0.63525C1.05875 0.21175 1.57775 0 2.19225 0H21.8077C22.4222 0 22.9412 0.21175 23.3647 0.63525C23.7882 1.05875 24 1.57775 24 2.19225V21.8077C24 22.4222 23.7882 22.9412 23.3647 23.3647C22.9412 23.7882 22.4222 24 21.8077 24H2.19225ZM1.26938 11.1345V21.8077C1.26938 22.0385 1.3655 22.25 1.55775 22.4423C1.75 22.6345 1.9615 22.7306 2.19225 22.7306H21.8077C22.0385 22.7306 22.25 22.6345 22.4423 22.4423C22.6345 22.25 22.7306 22.0385 22.7306 21.8077V11.1345H17.8845V17.8845H6.1155V11.1345H1.26938ZM7.3845 16.6155H16.6155V11.1345H7.3845V16.6155ZM1.26938 9.8655H22.7306V2.19225C22.7306 1.9615 22.6345 1.75 22.4423 1.55775C22.25 1.3655 22.0385 1.26937 21.8077 1.26937H2.19225C1.9615 1.26937 1.75 1.3655 1.55775 1.55775C1.3655 1.75 1.26938 1.9615 1.26938 2.19225V9.8655ZM5.93775 6.17325C5.6595 6.17325 5.41762 6.06888 5.21212 5.86013C5.00662 5.65163 4.90387 5.40825 4.90387 5.13C4.90387 4.85175 5.00812 4.60988 5.21662 4.40438C5.42537 4.19888 5.66888 4.09612 5.94712 4.09612C6.22538 4.09612 6.46725 4.20038 6.67275 4.40887C6.878 4.61763 6.98062 4.86112 6.98062 5.13937C6.98062 5.41762 6.87637 5.6595 6.66787 5.865C6.45937 6.0705 6.216 6.17325 5.93775 6.17325ZM11.9377 6.17325C11.6595 6.17325 11.4176 6.06888 11.2121 5.86013C11.0066 5.65163 10.9039 5.40825 10.9039 5.13C10.9039 4.85175 11.0081 4.60988 11.2166 4.40438C11.4254 4.19888 11.6689 4.09612 11.9471 4.09612C12.2254 4.09612 12.4672 4.20038 12.6727 4.40887C12.878 4.61763 12.9806 4.86112 12.9806 5.13937C12.9806 5.41762 12.8764 5.6595 12.6679 5.865C12.4594 6.0705 12.216 6.17325 11.9377 6.17325ZM17.9378 6.17325C17.6595 6.17325 17.4176 6.06888 17.2121 5.86013C17.0066 5.65163 16.9039 5.40825 16.9039 5.13C16.9039 4.85175 17.0081 4.60988 17.2166 4.40438C17.4254 4.19888 17.6689 4.09612 17.9471 4.09612C18.2254 4.09612 18.4673 4.20038 18.6728 4.40887C18.878 4.61763 18.9806 4.86112 18.9806 5.13937C18.9806 5.41762 18.8764 5.6595 18.6679 5.865C18.4594 6.0705 18.216 6.17325 17.9378 6.17325Z" fill="#655653"/>
</svg>
