<svg width="32" height="32" viewBox="0 0 32 32" fill="none" xmlns="http://www.w3.org/2000/svg">
<path d="M15.8333 31.6667C13.6397 31.6667 11.5797 31.2506 9.65333 30.4183C7.72694 29.5861 6.04806 28.456 4.61667 27.0279C3.185 25.5999 2.05764 23.9197 1.23458 21.9875C0.411528 20.0556 0 17.9892 0 15.7883C0 13.5889 0.411528 11.5304 1.23458 9.61292C2.05764 7.69514 3.185 6.02222 4.61667 4.59417C6.04806 3.16611 7.72694 2.04333 9.65333 1.22583C11.5797 0.40861 13.6397 0 15.8333 0C18.0328 0 20.0942 0.40861 22.0175 1.22583C23.9411 2.04333 25.6186 3.16611 27.05 4.59417C28.4817 6.02222 29.609 7.69514 30.4321 9.61292C31.2551 11.5304 31.6667 13.5889 31.6667 15.7883C31.6667 17.9892 31.2551 20.0556 30.4321 21.9875C29.609 23.9197 28.4817 25.5999 27.05 27.0279C25.6186 28.456 23.9411 29.5861 22.0175 30.4183C20.0942 31.2506 18.0328 31.6667 15.8333 31.6667ZM15.8333 29.6162C16.8078 28.4954 17.6147 27.3078 18.2542 26.0533C18.8939 24.7992 19.4171 23.3597 19.8238 21.735H11.86C12.2694 23.3569 12.7922 24.8018 13.4283 26.0696C14.0644 27.3374 14.8661 28.5196 15.8333 29.6162ZM12.9946 29.2371C12.2618 28.2565 11.6101 27.1232 11.0396 25.8371C10.469 24.551 10.0221 23.1836 9.69875 21.735H3.39083C4.39528 23.7478 5.68208 25.3664 7.25125 26.5908C8.82014 27.8153 10.7346 28.6974 12.9946 29.2371ZM18.6996 29.22C20.776 28.7628 22.6485 27.8835 24.3171 26.5821C25.986 25.281 27.3056 23.6653 28.2758 21.735H21.985C21.5969 23.1903 21.1222 24.5572 20.5608 25.8358C19.9994 27.1147 19.379 28.2428 18.6996 29.22ZM2.63583 19.6413H9.29917C9.19444 18.9274 9.12431 18.2579 9.08875 17.6329C9.05319 17.0079 9.03542 16.3931 9.03542 15.7883C9.03542 15.1381 9.05597 14.5136 9.09708 13.915C9.13847 13.3164 9.21153 12.6808 9.31625 12.0083H2.63583C2.44556 12.6275 2.30764 13.2397 2.22208 13.845C2.13681 14.4506 2.09417 15.0983 2.09417 15.7883C2.09417 16.4858 2.13681 17.1458 2.22208 17.7683C2.30764 18.3908 2.44556 19.0151 2.63583 19.6413ZM11.4275 19.6413H20.2563C20.3724 18.8749 20.4511 18.1976 20.4925 17.6096C20.5339 17.0215 20.5546 16.4144 20.5546 15.7883C20.5546 15.1808 20.5339 14.5906 20.4925 14.0175C20.4511 13.4444 20.3724 12.7747 20.2563 12.0083H11.4275C11.3114 12.7747 11.2326 13.4444 11.1912 14.0175C11.1499 14.5906 11.1292 15.1808 11.1292 15.7883C11.1292 16.4144 11.1499 17.0215 11.1912 17.6096C11.2326 18.1976 11.3114 18.8749 11.4275 19.6413ZM22.3504 19.6413H29.0308C29.2211 19.0151 29.359 18.3908 29.4446 17.7683C29.5299 17.1458 29.5725 16.4858 29.5725 15.7883C29.5725 15.0983 29.5299 14.4506 29.4446 13.845C29.359 13.2397 29.2211 12.6275 29.0308 12.0083H22.3783C22.4758 12.8275 22.5453 13.5289 22.5867 14.1125C22.6278 14.6964 22.6483 15.255 22.6483 15.7883C22.6483 16.4044 22.6249 17.0118 22.5779 17.6104C22.531 18.2093 22.4551 18.8863 22.3504 19.6413ZM21.9679 9.91458H28.2758C27.3247 7.91014 26.0282 6.26625 24.3863 4.98292C22.744 3.69931 20.8393 2.84278 18.6721 2.41333C19.4049 3.43611 20.0483 4.575 20.6025 5.83C21.1567 7.085 21.6118 8.44653 21.9679 9.91458ZM11.86 9.91458H19.8517C19.4761 8.40458 18.9481 6.99028 18.2675 5.67167C17.5869 4.35278 16.7756 3.15708 15.8333 2.08458C14.9322 3.01042 14.1678 4.09417 13.54 5.33583C12.9122 6.57778 12.3522 8.10403 11.86 9.91458ZM3.39083 9.91458H9.71583C10.0492 8.4807 10.4883 7.14097 11.0333 5.89542C11.5781 4.64958 12.2226 3.49458 12.9671 2.43042C10.796 2.86708 8.90056 3.72056 7.28083 4.99083C5.66139 6.26111 4.36472 7.90236 3.39083 9.91458Z" fill="#3F2F41"/>
</svg>
