<svg width="17" height="20" viewBox="0 0 17 20" fill="none" xmlns="http://www.w3.org/2000/svg">
<path d="M8.08425 18.9989C10.2254 17.1351 11.9182 15.2396 13.1626 13.3124C14.4071 11.3853 15.0293 9.71847 15.0293 8.31209C15.0293 6.22787 14.3695 4.50764 13.0499 3.15139C11.7302 1.79533 10.075 1.1173 8.08425 1.1173C6.09344 1.1173 4.43824 1.79533 3.11864 3.15139C1.79903 4.50764 1.13923 6.22787 1.13923 8.31209C1.13923 9.71847 1.76144 11.3853 3.00585 13.3124C4.25027 15.2396 5.94307 17.1351 8.08425 18.9989ZM8.08425 20C7.90615 20 7.72795 19.9708 7.54966 19.9123C7.37156 19.854 7.20723 19.7591 7.05666 19.6275C6.2461 18.8826 5.42453 18.0531 4.59194 17.1388C3.75955 16.2246 3.00339 15.2778 2.32346 14.2984C1.64353 13.3191 1.08635 12.3193 0.651923 11.2991C0.217308 10.279 0 9.28328 0 8.31209C0 5.90205 0.784738 3.9142 2.35421 2.34852C3.9235 0.78284 5.83351 0 8.08425 0C10.335 0 12.245 0.78284 13.8143 2.34852C15.3838 3.9142 16.1685 5.90205 16.1685 8.31209C16.1685 9.28328 15.9512 10.2754 15.5166 11.2883C15.0821 12.3011 14.5286 13.3008 13.8559 14.2873C13.1833 15.2741 12.4308 16.2209 11.5982 17.1277C10.7658 18.0347 9.94432 18.8607 9.13376 19.6055C8.98851 19.7371 8.82351 19.8358 8.63877 19.9015C8.45383 19.9672 8.26899 20 8.08425 20ZM8.08823 9.94631C8.59538 9.94631 9.02819 9.76575 9.38667 9.40461C9.74533 9.04348 9.92467 8.60933 9.92467 8.10219C9.92467 7.59504 9.74401 7.16214 9.38268 6.80347C9.02155 6.44499 8.58741 6.26575 8.08026 6.26575C7.57311 6.26575 7.1403 6.44632 6.78182 6.80746C6.42316 7.16859 6.24382 7.60273 6.24382 8.10988C6.24382 8.61702 6.42449 9.04993 6.78581 9.4086C7.14695 9.76708 7.58109 9.94631 8.08823 9.94631Z" fill="#C6C0BA"/>
</svg>
