<svg width="26" height="21" viewBox="0 0 26 21" fill="none" xmlns="http://www.w3.org/2000/svg">
<path d="M2.6 20.8C1.885 20.8 1.27292 20.5454 0.76375 20.0362C0.254583 19.5271 0 18.915 0 18.2V2.6C0 1.885 0.254583 1.27292 0.76375 0.76375C1.27292 0.254583 1.885 0 2.6 0H23.4C24.115 0 24.7271 0.254583 25.2362 0.76375C25.7454 1.27292 26 1.885 26 2.6V18.2C26 18.915 25.7454 19.5271 25.2362 20.0362C24.7271 20.5454 24.115 20.8 23.4 20.8H2.6ZM23.4 5.2L13.6825 11.2775C13.5742 11.3425 13.4604 11.3912 13.3412 11.4237C13.2221 11.4563 13.1083 11.4725 13 11.4725C12.8917 11.4725 12.7779 11.4563 12.6587 11.4237C12.5396 11.3912 12.4258 11.3425 12.3175 11.2775L2.6 5.2V18.2H23.4V5.2ZM13 9.1L23.4 2.6H2.6L13 9.1ZM2.6 5.525V3.6075V3.64V3.62375V5.525Z" fill="#8A728E"/>
</svg>
