<svg width="26" height="20" viewBox="0 0 26 20" fill="none" xmlns="http://www.w3.org/2000/svg">
<path d="M2.5935 20C1.93588 20 1.38684 19.7798 0.946359 19.3393C0.505883 18.8988 0.285645 18.3498 0.285645 17.6921V2.30786C0.285645 1.65024 0.505883 1.10119 0.946359 0.660714C1.38684 0.220238 1.93588 0 2.5935 0H23.6921C24.3497 0 24.8987 0.220238 25.3392 0.660714C25.7797 1.10119 25.9999 1.65024 25.9999 2.30786V17.6921C25.9999 18.3498 25.7797 18.8988 25.3392 19.3393C24.8987 19.7798 24.3497 20 23.6921 20H2.5935ZM24.5714 2.69214L13.7828 9.75536C13.6821 9.80845 13.5801 9.85286 13.4767 9.88857C13.3731 9.92429 13.2618 9.94214 13.1428 9.94214C13.0237 9.94214 12.9124 9.92429 12.8089 9.88857C12.7055 9.85286 12.6035 9.80845 12.5028 9.75536L1.71422 2.69214V17.6921C1.71422 17.9486 1.7966 18.1593 1.96136 18.3243C2.12636 18.489 2.33707 18.5714 2.5935 18.5714H23.6921C23.9485 18.5714 24.1592 18.489 24.3242 18.3243C24.489 18.1593 24.5714 17.9486 24.5714 17.6921V2.69214ZM13.1428 8.57143L24.1317 1.42857H2.15386L13.1428 8.57143ZM1.71422 2.99464V1.835V1.88464V1.81179V2.99464Z" fill="#C6C0BA"/>
</svg>
