<svg width="29" height="19" viewBox="0 0 29 19" fill="none" xmlns="http://www.w3.org/2000/svg">
<path d="M1.04688 18.7817C0.468703 18.7817 0 18.313 0 17.7348C0 17.1566 0.468702 16.6879 1.04688 16.6879H27.2865C27.8646 16.6879 28.3333 17.1566 28.3333 17.7348C28.3333 18.313 27.8646 18.7817 27.2865 18.7817H1.04688ZM1.04709 10.4379C0.468797 10.4379 0 9.96912 0 9.39083C0 8.81254 0.468796 8.34375 1.04708 8.34375H27.2862C27.8645 8.34375 28.3333 8.81254 28.3333 9.39083C28.3333 9.96912 27.8645 10.4379 27.2862 10.4379H1.04709ZM1.04688 2.09375C0.468703 2.09375 0 1.62505 0 1.04688C0 0.468702 0.468702 0 1.04688 0H27.2865C27.8646 0 28.3333 0.468702 28.3333 1.04688C28.3333 1.62505 27.8646 2.09375 27.2865 2.09375H1.04688Z" fill="#3F2F41"/>
</svg>
