<svg width="25" height="25" viewBox="0 0 25 25" fill="none" xmlns="http://www.w3.org/2000/svg">
<mask id="mask0_148_494" style="mask-type:alpha" maskUnits="userSpaceOnUse" x="0" y="0" width="25" height="25">
<rect width="25" height="25" fill="#D9D9D9"/>
</mask>
<g mask="url(#mask0_148_494)">
<path d="M2.604 22.3959V21.087H4.72614V10.5461H3.7264C3.52154 10.5461 3.35001 10.473 3.21182 10.3269C3.0738 10.1807 3.00479 10.0078 3.00479 9.80837C3.00479 9.67625 3.03473 9.55515 3.09463 9.44509C3.15452 9.33502 3.23742 9.24265 3.34333 9.168L11.5597 3.37894C11.7044 3.28137 11.8556 3.2068 12.0134 3.15524C12.171 3.1035 12.3321 3.07764 12.4967 3.07764C12.6615 3.07764 12.8235 3.1035 12.9829 3.15524C13.1425 3.2068 13.2948 3.28137 13.4399 3.37894L21.6563 9.168C21.7638 9.24387 21.8471 9.33875 21.9063 9.45264C21.9654 9.56653 21.9949 9.69048 21.9949 9.82451C21.9949 10.0294 21.9265 10.2009 21.7897 10.3391C21.6529 10.4771 21.4829 10.5461 21.2798 10.5461H20.2842V21.087H22.3957V22.3959H2.604ZM18.9756 21.087V8.87295L12.68 4.46253C12.6267 4.42243 12.5667 4.40238 12.4998 4.40238C12.433 4.40238 12.3729 4.42243 12.3196 4.46253L6.03473 8.87295V21.087H18.9756ZM12.4998 16.8136C12.6375 16.8136 12.7638 16.786 12.8787 16.7308C12.9938 16.6756 13.0944 16.5859 13.1803 16.4618L14.9985 13.742V17.8245C14.9985 18.0099 15.0616 18.1653 15.1876 18.2907C15.3138 18.4162 15.4701 18.4789 15.6563 18.4789C15.8428 18.4789 15.9979 18.4162 16.1217 18.2907C16.2453 18.1653 16.3071 18.0099 16.3071 17.8245V12.3771C16.3071 12.204 16.2503 12.0611 16.1366 11.9482C16.0227 11.8354 15.8818 11.7789 15.7139 11.7789H15.1993C15.1045 11.7789 15.0124 11.8028 14.923 11.8506C14.8336 11.8983 14.759 11.9639 14.6993 12.0474L12.4998 15.3578L10.3316 12.0881C10.2604 11.9875 10.1753 11.9109 10.0761 11.8581C9.97701 11.8053 9.86867 11.7789 9.75114 11.7789H9.4152C9.21485 11.7789 9.0461 11.8478 8.90895 11.9854C8.7718 12.1233 8.70322 12.292 8.70322 12.4914V17.8245C8.70322 18.0099 8.76624 18.1653 8.89229 18.2907C9.01833 18.4162 9.17458 18.4789 9.36104 18.4789C9.54732 18.4789 9.70235 18.4162 9.82614 18.2907C9.94992 18.1653 10.0118 18.0099 10.0118 17.8245V13.742L11.8194 16.4511C11.9001 16.5752 12.0005 16.6667 12.1207 16.7256C12.2408 16.7842 12.3672 16.8136 12.4998 16.8136Z" fill="#655653"/>
</g>
</svg>
