<svg width="80" height="80" viewBox="0 0 80 80" fill="none" xmlns="http://www.w3.org/2000/svg">
<path d="M40.0144 80C34.5004 80 29.323 78.9504 24.4822 76.8511C19.6415 74.7519 15.4015 71.8844 11.7622 68.2489C8.12296 64.6133 5.25296 60.3774 3.15222 55.5411C1.05074 50.7048 0 45.5293 0 40.0144C0 34.4833 1.04963 29.283 3.14889 24.4133C5.24815 19.5444 8.11555 15.3089 11.7511 11.7067C15.3867 8.10444 19.6226 5.25296 24.4589 3.15222C29.2952 1.05074 34.4707 0 39.9856 0C45.5167 0 50.717 1.04963 55.5867 3.14889C60.4556 5.24815 64.6911 8.09704 68.2933 11.6956C71.8956 15.2941 74.747 19.5259 76.8478 24.3911C78.9493 29.2556 80 34.4537 80 39.9856C80 45.4996 78.9504 50.677 76.8511 55.5178C74.7519 60.3585 71.903 64.5985 68.3044 68.2378C64.7059 71.877 60.4741 74.747 55.6089 76.8478C50.7444 78.9493 45.5463 80 40.0144 80ZM40 76.5811C50.1763 76.5811 58.8174 73.0241 65.9233 65.91C73.0285 58.7959 76.5811 50.1593 76.5811 40C76.5811 29.8237 73.0285 21.1826 65.9233 14.0767C58.8174 6.97148 50.1763 3.41889 40 3.41889C29.8407 3.41889 21.2041 6.97148 14.09 14.0767C6.97593 21.1826 3.41889 29.8237 3.41889 40C3.41889 50.1593 6.97593 58.7959 14.09 65.91C21.2041 73.0241 29.8407 76.5811 40 76.5811Z" fill="white"/>
<path d="M32.0948 43.7583V55.7449C32.0948 56.2065 31.933 56.6055 31.6093 56.9421C31.286 57.2783 30.8785 57.4464 30.3867 57.4464C29.9233 57.4464 29.525 57.2783 29.1918 56.9421C28.8585 56.6055 28.6919 56.2065 28.6919 55.7449V23.7581C28.6919 23.2966 28.86 22.8975 29.1962 22.5609C29.5328 22.2247 29.9318 22.0566 30.3934 22.0566H42.15C45.1817 22.0566 47.7517 23.1108 49.86 25.219C51.9682 27.3273 53.0224 29.8973 53.0224 32.929C53.0224 35.9176 51.9682 38.4698 49.86 40.5854C47.7517 42.7007 45.1817 43.7583 42.15 43.7583H32.0948ZM32.0948 40.3554H42.0654C44.1467 40.3554 45.912 39.631 47.3611 38.1822C48.8099 36.7331 49.5343 34.9748 49.5343 32.9075C49.5343 30.8401 48.8099 29.0821 47.3611 27.6333C45.912 26.1842 44.1467 25.4596 42.0654 25.4596H32.0948V40.3554Z" fill="white"/>
</svg>
