<svg width="25" height="25" viewBox="0 0 25 25" fill="none" xmlns="http://www.w3.org/2000/svg">
<mask id="mask0_148_434" style="mask-type:alpha" maskUnits="userSpaceOnUse" x="0" y="0" width="25" height="25">
<rect width="25" height="25" fill="#D9D9D9"/>
</mask>
<g mask="url(#mask0_148_434)">
<path d="M7.65231 9.49531V2.93464C7.65231 2.76727 7.70934 2.62691 7.82341 2.51354C7.93764 2.40035 8.07922 2.34375 8.24814 2.34375C8.41047 2.34375 8.54867 2.40035 8.66273 2.51354C8.77696 2.62691 8.83408 2.76727 8.83408 2.93464V9.49531H10.7471V2.93464C10.7471 2.76727 10.8042 2.62691 10.9185 2.51354C11.0327 2.40035 11.1743 2.34375 11.3432 2.34375C11.5121 2.34375 11.652 2.40035 11.7627 2.51354C11.8737 2.62691 11.9291 2.76727 11.9291 2.93464V9.48516C11.9291 10.4454 11.6273 11.2607 11.0237 11.931C10.42 12.6015 9.69016 13.0055 8.83408 13.143V22.0654C8.83408 22.2327 8.77531 22.3731 8.65778 22.4865C8.54042 22.5997 8.39893 22.6562 8.2333 22.6562C8.06768 22.6562 7.92939 22.5997 7.81846 22.4865C7.70769 22.3731 7.65231 22.2327 7.65231 22.0654V13.143C6.78946 13.0055 6.0563 12.6015 5.45283 11.931C4.84919 11.2607 4.54736 10.4454 4.54736 9.48516V2.93464C4.54736 2.76727 4.60448 2.62691 4.71872 2.51354C4.83295 2.40035 4.97445 2.34375 5.1432 2.34375C5.31212 2.34375 5.45205 2.40035 5.56299 2.51354C5.67375 2.62691 5.72913 2.76727 5.72913 2.93464V9.49531H7.65231ZM17.9487 14.3229H15.957C15.7415 14.3229 15.5622 14.251 15.419 14.107C15.2759 13.9629 15.2044 13.7845 15.2044 13.5716V6.81094C15.2044 5.51944 15.5249 4.45208 16.1659 3.60885C16.8068 2.76545 17.5233 2.34375 18.3153 2.34375C18.5554 2.34375 18.7514 2.425 18.9031 2.5875C19.0547 2.75 19.1304 2.95391 19.1304 3.19922V22.0654C19.1304 22.2327 19.0733 22.3731 18.9591 22.4865C18.8448 22.5997 18.7034 22.6562 18.5346 22.6562C18.3657 22.6562 18.2257 22.5997 18.1148 22.4865C18.004 22.3731 17.9487 22.2327 17.9487 22.0654V14.3229Z" fill="#655653"/>
</g>
</svg>
