<svg width="19" height="25" viewBox="0 0 19 25" fill="none" xmlns="http://www.w3.org/2000/svg">
<path d="M2.8876 19.9665C2.6026 19.9665 2.35666 19.8677 2.14977 19.6703C1.94262 19.4725 1.83904 19.2267 1.83904 18.9327C1.83904 18.639 1.94341 18.3939 2.15215 18.1975C2.36088 18.0014 2.60234 17.9033 2.87652 17.9033C3.17155 17.9033 3.41749 18.0022 3.61435 18.1999C3.81122 18.3974 3.90965 18.6431 3.90965 18.9371C3.90965 19.231 3.81042 19.4761 3.61198 19.6722C3.4138 19.8684 3.17234 19.9665 2.8876 19.9665ZM9.49802 19.9665C9.20299 19.9665 8.95705 19.8677 8.76019 19.6703C8.56333 19.4725 8.4649 19.2267 8.4649 18.9327C8.4649 18.639 8.56399 18.3939 8.76217 18.1975C8.96061 18.0014 9.20722 17.9033 9.50198 17.9033C9.79701 17.9033 10.043 18.0022 10.2398 18.1999C10.4367 18.3974 10.5351 18.6431 10.5351 18.9371C10.5351 19.231 10.436 19.4761 10.2378 19.6722C10.0394 19.8684 9.79279 19.9665 9.49802 19.9665ZM16.1235 19.9665C15.8285 19.9665 15.5825 19.8677 15.3856 19.6703C15.1888 19.4725 15.0904 19.2267 15.0904 18.9327C15.0904 18.639 15.1896 18.3939 15.388 18.1975C15.5862 18.0014 15.8277 17.9033 16.1124 17.9033C16.3974 17.9033 16.6433 18.0022 16.8502 18.1999C17.0574 18.3974 17.161 18.6431 17.161 18.9371C17.161 19.231 17.0566 19.4761 16.8479 19.6722C16.6391 19.8684 16.3977 19.9665 16.1235 19.9665ZM1.0351 13.9591C0.760132 13.9591 0.518937 13.8558 0.311521 13.6491C0.10384 13.4422 0 13.2017 0 12.9277V12.7455C0 10.2557 0.870305 8.10063 2.61092 6.28027C4.35153 4.45991 6.44496 3.45573 8.89121 3.26773V0.606611C8.89121 0.434909 8.95032 0.290815 9.06854 0.174331C9.18703 0.0581098 9.33375 0 9.50871 0C9.68367 0 9.82749 0.0581098 9.94017 0.174331C10.0526 0.290815 10.1088 0.434909 10.1088 0.606611V3.26773C12.555 3.45573 14.6485 4.45991 16.3891 6.28027C18.1297 8.10063 19 10.2557 19 12.7455V12.9277C19 13.2017 18.8962 13.4422 18.6885 13.6491C18.4811 13.8558 18.2399 13.9591 17.9649 13.9591H1.0351ZM1.21798 12.7455H17.782C17.782 10.4742 16.9757 8.53107 15.3631 6.91607C13.7507 5.30081 11.8006 4.49318 9.51267 4.49318C7.22475 4.49318 5.27026 5.29778 3.64919 6.907C2.02838 8.51621 1.21798 10.4624 1.21798 12.7455ZM2.8876 25C2.6026 25 2.35666 24.9011 2.14977 24.7034C1.94262 24.5059 1.83904 24.2602 1.83904 23.9662C1.83904 23.6723 1.94341 23.4272 2.15215 23.231C2.36088 23.0349 2.60234 22.9368 2.87652 22.9368C3.17155 22.9368 3.41749 23.0355 3.61435 23.233C3.81122 23.4308 3.90965 23.6766 3.90965 23.9706C3.90965 24.2643 3.81042 24.5092 3.61198 24.7054C3.4138 24.9018 3.17234 25 2.8876 25ZM9.49802 25C9.20299 25 8.95705 24.9011 8.76019 24.7034C8.56333 24.5059 8.4649 24.2602 8.4649 23.9662C8.4649 23.6723 8.56399 23.4272 8.76217 23.231C8.96061 23.0349 9.20722 22.9368 9.50198 22.9368C9.79701 22.9368 10.043 23.0355 10.2398 23.233C10.4367 23.4308 10.5351 23.6766 10.5351 23.9706C10.5351 24.2643 10.436 24.5092 10.2378 24.7054C10.0394 24.9018 9.79279 25 9.49802 25ZM16.1235 25C15.8285 25 15.5825 24.9011 15.3856 24.7034C15.1888 24.5059 15.0904 24.2602 15.0904 23.9662C15.0904 23.6723 15.1896 23.4272 15.388 23.231C15.5862 23.0349 15.8277 22.9368 16.1124 22.9368C16.3974 22.9368 16.6433 23.0355 16.8502 23.233C17.0574 23.4308 17.161 23.6766 17.161 23.9706C17.161 24.2643 17.0566 24.5092 16.8479 24.7054C16.6391 24.9018 16.3977 25 16.1235 25Z" fill="#655653"/>
</svg>
