<svg width="80" height="106" viewBox="0 0 80 106" fill="none" xmlns="http://www.w3.org/2000/svg">
<path d="M12.1583 84.3717C10.9583 84.3717 9.92278 83.9544 9.05167 83.12C8.17944 82.2844 7.74333 81.2456 7.74333 80.0033C7.74333 78.7622 8.18278 77.7267 9.06167 76.8967C9.94055 76.0678 10.9572 75.6533 12.1117 75.6533C13.3539 75.6533 14.3894 76.0711 15.2183 76.9067C16.0472 77.7411 16.4617 78.7794 16.4617 80.0217C16.4617 81.2639 16.0439 82.2994 15.2083 83.1283C14.3739 83.9572 13.3572 84.3717 12.1583 84.3717ZM39.9917 84.3717C38.7494 84.3717 37.7139 83.9544 36.885 83.12C36.0561 82.2844 35.6417 81.2456 35.6417 80.0033C35.6417 78.7622 36.0589 77.7267 36.8933 76.8967C37.7289 76.0678 38.7672 75.6533 40.0083 75.6533C41.2506 75.6533 42.2861 76.0711 43.115 76.9067C43.9439 77.7411 44.3583 78.7794 44.3583 80.0217C44.3583 81.2639 43.9411 82.2994 43.1067 83.1283C42.2711 83.9572 41.2328 84.3717 39.9917 84.3717ZM67.8883 84.3717C66.6461 84.3717 65.6105 83.9544 64.7817 83.12C63.9528 82.2844 63.5383 81.2456 63.5383 80.0033C63.5383 78.7622 63.9561 77.7267 64.7917 76.8967C65.6261 76.0678 66.6428 75.6533 67.8417 75.6533C69.0417 75.6533 70.0772 76.0711 70.9483 76.9067C71.8206 77.7411 72.2567 78.7794 72.2567 80.0217C72.2567 81.2639 71.8172 82.2994 70.9383 83.1283C70.0594 83.9572 69.0428 84.3717 67.8883 84.3717ZM4.35833 58.9867C3.20055 58.9867 2.185 58.55 1.31167 57.6767C0.437221 56.8022 0 55.7861 0 54.6283V53.8583C0 43.3372 3.66444 34.2306 10.9933 26.5383C18.3222 18.8461 27.1367 14.6028 37.4367 13.8083V2.56333C37.4367 1.83778 37.6856 1.22889 38.1833 0.736664C38.6822 0.245553 39.3 0 40.0367 0C40.7733 0 41.3789 0.245553 41.8533 0.736664C42.3267 1.22889 42.5633 1.83778 42.5633 2.56333V13.8083C52.8633 14.6028 61.6778 18.8461 69.0067 26.5383C76.3356 34.2306 80 43.3372 80 53.8583V54.6283C80 55.7861 79.5628 56.8022 78.6883 57.6767C77.815 58.55 76.7994 58.9867 75.6417 58.9867H4.35833ZM5.12833 53.8583H74.8717C74.8717 44.2606 71.4767 36.0494 64.6867 29.225C57.8978 22.3994 49.6867 18.9867 40.0533 18.9867C30.42 18.9867 22.1906 22.3867 15.365 29.1867C8.54056 35.9867 5.12833 44.2106 5.12833 53.8583ZM12.1583 105.642C10.9583 105.642 9.92278 105.224 9.05167 104.388C8.17944 103.554 7.74333 102.516 7.74333 101.273C7.74333 100.031 8.18278 98.9956 9.06167 98.1667C9.94055 97.3378 10.9572 96.9233 12.1117 96.9233C13.3539 96.9233 14.3894 97.3406 15.2183 98.175C16.0472 99.0106 16.4617 100.049 16.4617 101.292C16.4617 102.533 16.0439 103.568 15.2083 104.397C14.3739 105.227 13.3572 105.642 12.1583 105.642ZM39.9917 105.642C38.7494 105.642 37.7139 105.224 36.885 104.388C36.0561 103.554 35.6417 102.516 35.6417 101.273C35.6417 100.031 36.0589 98.9956 36.8933 98.1667C37.7289 97.3378 38.7672 96.9233 40.0083 96.9233C41.2506 96.9233 42.2861 97.3406 43.115 98.175C43.9439 99.0106 44.3583 100.049 44.3583 101.292C44.3583 102.533 43.9411 103.568 43.1067 104.397C42.2711 105.227 41.2328 105.642 39.9917 105.642ZM67.8883 105.642C66.6461 105.642 65.6105 105.224 64.7817 104.388C63.9528 103.554 63.5383 102.516 63.5383 101.273C63.5383 100.031 63.9561 98.9956 64.7917 98.1667C65.6261 97.3378 66.6428 96.9233 67.8417 96.9233C69.0417 96.9233 70.0772 97.3406 70.9483 98.175C71.8206 99.0106 72.2567 100.049 72.2567 101.292C72.2567 102.533 71.8172 103.568 70.9383 104.397C70.0594 105.227 69.0428 105.642 67.8883 105.642Z" fill="white"/>
</svg>
