<svg width="106" height="85" viewBox="0 0 106 85" fill="none" xmlns="http://www.w3.org/2000/svg">
<path d="M87.1665 84.231C89.9121 84.231 92.2415 83.2712 94.1548 81.3517C96.0689 79.4321 97.026 77.1015 97.026 74.3598H99.1797C101.025 74.3598 102.622 73.6843 103.973 72.3333C105.324 70.9815 106 69.3836 106 67.5395V38.8582C106 36.9736 105.324 35.3597 103.973 34.0165C102.622 32.6725 101.025 32.0005 99.1797 32.0005H42.7702C41.8804 32.0005 41.0326 32.1689 40.2268 32.5057C39.4211 32.8424 38.7269 33.2893 38.1443 33.8462L17.1152 53.62C16.4548 54.2204 15.9372 54.9539 15.5623 55.8203C15.1874 56.6875 15 57.6154 15 58.604V67.5395C15 69.3836 15.6755 70.9815 17.0265 72.3333C18.3775 73.6843 19.9754 74.3598 21.8203 74.3598H22.539C22.539 77.1139 23.4999 79.4477 25.4218 81.361C27.3437 83.2743 29.6774 84.231 32.423 84.231C35.1686 84.231 37.498 83.2712 39.4113 81.3517C41.3254 79.4321 42.2825 77.1015 42.2825 74.3598H77.2825C77.2825 77.0836 78.2434 79.4099 80.1653 81.3388C82.0872 83.2669 84.4209 84.231 87.1665 84.231ZM50 53.3598H23.3043L40.984 36.757C41.243 36.5174 41.5471 36.323 41.8963 36.1737C42.2456 36.0243 42.5994 35.9497 42.958 35.9497H50V53.3598ZM76.026 53.3598H53.9492V35.9497H76.026V53.3598ZM102.051 53.3598H79.974V35.9497H99.1797C100.017 35.9497 100.705 36.2188 101.243 36.757C101.782 37.2952 102.051 37.9832 102.051 38.8208V53.3598ZM87.1677 80.5513C85.4371 80.5513 83.9702 79.9544 82.767 78.7605C81.563 77.5658 80.961 76.1032 80.961 74.3727C80.961 72.6429 81.5583 71.176 82.753 69.972C83.9477 68.7688 85.4103 68.1672 87.1408 68.1672C88.8706 68.1672 90.3371 68.7645 91.5403 69.9592C92.7443 71.1538 93.3463 72.616 93.3463 74.3458C93.3463 76.0764 92.749 77.5433 91.5543 78.7465C90.3597 79.9497 88.8974 80.5513 87.1677 80.5513ZM32.4242 80.5513C30.6936 80.5513 29.2267 79.9544 28.0235 78.7605C26.8195 77.5658 26.2175 76.1032 26.2175 74.3727C26.2175 72.6429 26.8148 71.176 28.0095 69.972C29.2042 68.7688 30.6668 68.1672 32.3973 68.1672C34.1271 68.1672 35.5936 68.7645 36.7968 69.9592C38.0008 71.1538 38.6028 72.616 38.6028 74.3458C38.6028 76.0764 38.0055 77.5433 36.8108 78.7465C35.6162 79.9497 34.1539 80.5513 32.4242 80.5513ZM77.9347 70.4107H41.5475C40.8988 68.8349 39.7228 67.4539 38.0195 66.2678C36.3162 65.0809 34.4464 64.4875 32.4102 64.4875C30.3739 64.4875 28.5493 65.0358 26.9362 66.1325C25.3223 67.2299 24.0736 68.656 23.19 70.4107H21.8203C20.9827 70.4107 20.2947 70.1415 19.7565 69.6033C19.2183 69.0651 18.9492 68.3772 18.9492 67.5395V57.3078H102.051V67.5395C102.051 68.3772 101.782 69.0651 101.243 69.6033C100.705 70.1415 100.017 70.4107 99.1797 70.4107H96.3132C95.6497 68.7952 94.4663 67.4042 92.763 66.2375C91.0597 65.0708 89.1899 64.4875 87.1537 64.4875C85.1174 64.4875 83.2928 65.0261 81.6797 66.1033C80.0658 67.1798 78.8174 68.6155 77.9347 70.4107Z" fill="white"/>
<path fill-rule="evenodd" clip-rule="evenodd" d="M37.9615 14.7357L15.3038 31.1845C14.7628 31.5816 14.1802 31.7682 13.556 31.7442C12.9318 31.7202 12.3539 31.52 11.8223 31.1436L5.32224 26.13C5.08963 25.9471 4.97429 25.6908 4.97622 25.361C4.97815 25.0312 5.10676 24.7793 5.36205 24.6053L5.85517 24.2455C5.97837 24.1475 6.12014 24.0891 6.28048 24.0703C6.44081 24.0514 6.59392 24.0694 6.7398 24.1244L13.1063 26.3577L20.8846 20.7374L8.05129 12.7135C7.66212 12.4798 7.45947 12.1271 7.44333 11.6553C7.42719 11.1834 7.60287 10.8137 7.97036 10.5461L8.44746 10.1925C8.60346 10.0821 8.78315 10.0091 8.98652 9.97351C9.18976 9.93755 9.40378 9.96894 9.62857 10.0677L27.213 16.1286L34.7774 10.6292C35.3401 10.2236 35.9717 10.083 36.6722 10.2073C37.3729 10.3319 37.9302 10.6862 38.3441 11.2703C38.7495 11.8326 38.9223 12.4515 38.8623 13.127C38.8024 13.8025 38.5021 14.3387 37.9615 14.7357Z" fill="white"/>
</svg>
