<svg width="23" height="21" viewBox="0 0 23 21" fill="none" xmlns="http://www.w3.org/2000/svg">
<path d="M18.1829 17.2907C17.9132 17.4561 17.633 17.6096 17.3423 17.7511C17.0516 17.8925 16.7495 18.0182 16.4361 18.1283C16.2326 18.2083 16.02 18.2095 15.798 18.1317C15.5761 18.0542 15.4225 17.9224 15.3373 17.7365C15.2521 17.5624 15.2602 17.3885 15.3616 17.215C15.463 17.0415 15.6181 16.9147 15.8267 16.8347C16.0464 16.7619 16.2563 16.68 16.4566 16.5891C16.657 16.4984 16.8544 16.3877 17.0485 16.2571L12.0289 11.7658V15.3259C12.0289 15.6474 11.8618 15.8688 11.5278 15.99C11.1935 16.1114 10.902 16.0585 10.6534 15.8313L6.61633 12.2189H2.91878C2.63332 12.2189 2.3975 12.1355 2.21133 11.9688C2.02495 11.802 1.93176 11.591 1.93176 11.3358V7.45546C1.93176 7.20023 2.02495 6.98924 2.21133 6.82247C2.3975 6.65571 2.63332 6.57233 2.91878 6.57233H6.2036L0.227824 1.21825C0.075522 1.08217 -0.000418987 0.915591 1.73853e-06 0.718525C0.000212101 0.521272 0.0804654 0.351028 0.240762 0.207794C0.400848 0.0692643 0.589017 0 0.80527 0C1.02152 0 1.2098 0.0692643 1.37009 0.207794L22.7346 19.3234C22.8869 19.4595 22.9637 19.6262 22.965 19.8234C22.9662 20.0205 22.8895 20.1907 22.7346 20.3342C22.5745 20.4774 22.3828 20.549 22.1594 20.549C21.9362 20.549 21.7444 20.4774 21.5842 20.3342L18.1829 17.2907ZM21.4144 9.36739C21.4144 7.728 20.9062 6.23363 19.8897 4.88429C18.8732 3.53476 17.527 2.54369 15.851 1.91108C15.6342 1.82375 15.4796 1.6951 15.3875 1.52514C15.2954 1.35537 15.2938 1.18333 15.3828 1.00904C15.4707 0.81593 15.629 0.686152 15.8577 0.61971C16.0863 0.553081 16.3169 0.563434 16.5493 0.650768C18.4922 1.40835 20.0531 2.56684 21.232 4.12623C22.4107 5.68563 23 7.43268 23 9.36739C23 10.1333 22.8988 10.8793 22.6964 11.6054C22.4939 12.3316 22.1919 13.0264 21.7905 13.6898C21.6464 13.9471 21.4696 14.1023 21.2601 14.1554C21.0506 14.2085 20.8506 14.1988 20.6602 14.1263C20.4753 14.054 20.3361 13.9405 20.2425 13.7856C20.1488 13.6306 20.1574 13.4646 20.268 13.2875C20.6526 12.6973 20.9397 12.0745 21.1295 11.4194C21.3194 10.7642 21.4144 10.0802 21.4144 9.36739ZM15.7879 5.67679C16.4201 6.09953 16.8982 6.64856 17.2224 7.32389C17.5466 7.99903 17.7086 8.68961 17.7086 9.39562C17.7086 9.59005 17.6985 9.77883 17.6784 9.96197C17.6582 10.1453 17.617 10.3282 17.555 10.5105C17.4967 10.6982 17.3658 10.8155 17.1621 10.8626C16.9585 10.9097 16.7749 10.8601 16.6115 10.7138L15.3342 9.57095C15.23 9.47778 15.1547 9.38047 15.1082 9.27902C15.062 9.17776 15.0388 9.0668 15.0388 8.94615V6.02715C15.0388 5.85832 15.1235 5.73447 15.2928 5.65561C15.4622 5.57656 15.6272 5.58362 15.7879 5.67679ZM9.65186 4.48677C9.54773 4.3936 9.49766 4.28669 9.50166 4.16604C9.50587 4.0454 9.56004 3.93849 9.66417 3.84532L10.6534 2.95993C10.902 2.73275 11.1935 2.67986 11.5278 2.80127C11.8618 2.92248 12.0289 3.14138 12.0289 3.45796V5.54578C12.0289 5.73984 11.9249 5.87507 11.7171 5.95149C11.509 6.0281 11.3277 5.99346 11.1731 5.84759L9.65186 4.48677ZM10.4432 13.6102V10.3657L7.78952 7.99132H3.51737V10.7999H7.30232L10.4432 13.6102Z" fill="#655653"/>
</svg>
