<svg width="25" height="25" viewBox="0 0 25 25" fill="none" xmlns="http://www.w3.org/2000/svg">
<path d="M5.61042 9.81042C5.05579 9.81042 4.5875 9.62002 4.20556 9.23924C3.82361 8.85845 3.63264 8.40069 3.63264 7.86597C3.63264 7.33542 3.82222 6.86898 4.20139 6.46667C4.58079 6.06412 5.0478 5.86285 5.60243 5.86285C6.15706 5.86285 6.62535 6.06192 7.00729 6.46007C7.38924 6.85822 7.58021 7.32512 7.58021 7.86076C7.58021 8.39664 7.39051 8.85555 7.01111 9.2375C6.63194 9.61944 6.16505 9.81042 5.61042 9.81042ZM3.4184 25C3.01632 25 2.66655 24.8625 2.3691 24.5875C2.07164 24.3123 1.92292 23.969 1.92292 23.5576C1.38565 23.5576 0.930903 23.3606 0.55868 22.9667C0.186227 22.5727 0 22.1109 0 21.5812V16.0257C0 15.7532 0.0921296 15.5249 0.276389 15.3406C0.460648 15.1564 0.689005 15.0642 0.961458 15.0642H3.63264V14.0455C3.63264 13.3374 3.87743 12.7296 4.36701 12.2222C4.8566 11.7148 5.45752 11.4611 6.16979 11.4611C6.56516 11.4611 6.95069 11.551 7.32639 11.7309C7.70208 11.9108 8.03148 12.1627 8.31458 12.4868L9.66597 14.108C9.82801 14.2983 9.99583 14.4708 10.1694 14.6257C10.3431 14.7806 10.5314 14.9267 10.7344 15.0642H21.1538V3.19965C21.1538 2.62396 20.9696 2.12489 20.601 1.70243C20.2328 1.27975 19.7653 1.0684 19.1986 1.0684C18.9197 1.0684 18.6523 1.11377 18.3965 1.20451C18.1407 1.29549 17.914 1.4397 17.7163 1.63715L15.9642 3.45625C16.0622 3.8588 16.075 4.26262 16.0028 4.66771C15.9308 5.07257 15.7906 5.45127 15.5823 5.80382L12.8687 3.13021C13.2167 2.89479 13.5894 2.74433 13.9868 2.67882C14.3845 2.61331 14.7828 2.65451 15.1816 2.80243L16.9337 1.01215C17.2383 0.69757 17.5837 0.450232 17.9698 0.27014C18.3559 0.0900473 18.7655 0 19.1986 0C20.0475 0 20.7635 0.316436 21.3469 0.949306C21.9304 1.58195 22.2222 2.33206 22.2222 3.19965V15.0642H24.0385C24.311 15.0642 24.5394 15.1564 24.7236 15.3406C24.9079 15.5249 25 15.7532 25 16.0257V21.5812C25 22.1109 24.8138 22.5727 24.4413 22.9667C24.0691 23.3606 23.6144 23.5576 23.0771 23.5576C23.0771 23.969 22.9278 24.3123 22.6292 24.5875C22.3308 24.8625 21.9806 25 21.5785 25H3.4184ZM1.92292 22.4892H23.0771C23.3262 22.4892 23.5309 22.4002 23.6913 22.2222C23.8515 22.0442 23.9316 21.8306 23.9316 21.5812V16.1326H1.0684V21.5812C1.0684 21.8306 1.1485 22.0442 1.30868 22.2222C1.4691 22.4002 1.67384 22.4892 1.92292 22.4892ZM1.92292 22.4892H1.0684H23.9316H1.92292Z" fill="#655653"/>
</svg>
