<svg width="25" height="25" viewBox="0 0 25 25" fill="none" xmlns="http://www.w3.org/2000/svg">
<mask id="mask0_175_175" style="mask-type:alpha" maskUnits="userSpaceOnUse" x="0" y="0" width="25" height="25">
<rect width="25" height="25" fill="#D9D9D9"/>
</mask>
<g mask="url(#mask0_175_175)">
<path d="M5.00241 21.6147C4.5538 21.6147 4.17012 21.4553 3.85137 21.1365C3.53262 20.8178 3.37325 20.4341 3.37325 19.9855V11.3996C2.91387 11.0292 2.59477 10.5611 2.41595 9.99513C2.23731 9.42916 2.24304 8.84409 2.43314 8.23992L3.49746 4.8092C3.63635 4.35954 3.87029 4.00989 4.19929 3.76024C4.52828 3.51041 4.91795 3.3855 5.3683 3.3855H19.555C20.0198 3.3855 20.4215 3.50902 20.7602 3.75607C21.0991 4.00312 21.3376 4.34748 21.4756 4.78914L22.5772 8.23992C22.7673 8.84409 22.77 9.43072 22.5855 9.99982C22.4011 10.5689 22.0791 11.0422 21.6196 11.4196V19.9855C21.6196 20.4341 21.4603 20.8178 21.1417 21.1365C20.823 21.4553 20.4392 21.6147 19.9904 21.6147H5.00241ZM14.8183 10.804C15.4058 10.804 15.8675 10.6272 16.2035 10.2735C16.5392 9.91987 16.6775 9.5269 16.6183 9.09461L15.9467 4.69435H13.1594V9.02378C13.1594 9.5019 13.3195 9.91814 13.6397 10.2725C13.9596 10.6268 14.3525 10.804 14.8183 10.804ZM10.0425 10.804C10.562 10.804 10.9932 10.6298 11.3363 10.2813C11.6793 9.93272 11.8508 9.51354 11.8508 9.02378V4.69435H9.05684L8.38522 9.13472C8.32915 9.52326 8.46005 9.89861 8.77793 10.2608C9.09564 10.6229 9.51717 10.804 10.0425 10.804ZM5.35762 10.804C5.79078 10.804 6.165 10.6548 6.48028 10.3563C6.79538 10.0579 6.9834 9.68854 7.04434 9.24826L7.70684 4.69435H5.22012C5.10658 4.69435 5.01535 4.71935 4.94642 4.76935C4.87733 4.81953 4.82837 4.89461 4.79955 4.99461L3.72038 8.53914C3.54989 9.07369 3.62116 9.5848 3.93418 10.0725C4.24703 10.5602 4.72151 10.804 5.35762 10.804ZM19.6352 10.804C20.2246 10.804 20.6918 10.5698 21.0368 10.1014C21.3818 9.63281 21.4639 9.11206 21.2831 8.53914L20.18 4.97482C20.1512 4.87465 20.1022 4.80286 20.0331 4.75946C19.9642 4.71605 19.873 4.69435 19.7594 4.69435H17.2967L17.9592 9.24826C18.0246 9.68854 18.2139 10.0579 18.5269 10.3563C18.8397 10.6548 19.2092 10.804 19.6352 10.804ZM5.00241 20.3058H19.9904C20.0795 20.3058 20.1552 20.2758 20.2175 20.2157C20.2798 20.1556 20.311 20.0789 20.311 19.9855V12.0313C20.2447 12.0655 20.1488 12.0877 20.0232 12.0977C19.8977 12.1078 19.7684 12.1128 19.6352 12.1128C19.1852 12.1128 18.774 12.0215 18.4016 11.8389C18.0292 11.6564 17.6667 11.3689 17.3141 10.9764C17.036 11.3208 16.6937 11.5963 16.2873 11.8029C15.8809 12.0095 15.409 12.1128 14.8717 12.1128C14.4038 12.1128 13.9824 12.0264 13.6076 11.8535C13.2328 11.6804 12.8653 11.4138 12.5053 11.0537C12.1976 11.3996 11.8384 11.6626 11.4274 11.8428C11.0165 12.0228 10.5891 12.1128 10.1454 12.1128C9.65667 12.1128 9.20484 12.0241 8.78991 11.8467C8.37498 11.6693 8.01708 11.3792 7.71621 10.9764C7.25233 11.4144 6.82463 11.7133 6.43314 11.873C6.04165 12.0329 5.68314 12.1128 5.35762 12.1128C5.23175 12.1128 5.10892 12.1078 4.98913 12.0977C4.86934 12.0877 4.76691 12.0655 4.68184 12.0313V19.9855C4.68184 20.0789 4.713 20.1556 4.77533 20.2157C4.83766 20.2758 4.91335 20.3058 5.00241 20.3058Z" fill="#655653"/>
</g>
</svg>
