<svg width="28" height="28" viewBox="0 0 28 28" fill="none" xmlns="http://www.w3.org/2000/svg">
<path d="M9.29232 7.23583C9.07549 7.20408 8.85433 7.24773 8.66582 7.3595H8.64949C8.21199 7.61616 7.81766 7.93933 7.48166 8.31966C7.20166 8.64283 7.04999 8.9695 7.01032 9.2845C6.98699 9.47116 7.00332 9.66016 7.05816 9.83866L7.07916 9.85033C7.39416 10.7755 7.80482 11.6657 8.30649 12.5033C8.95364 13.6797 9.74963 14.7678 10.6748 15.7408L10.7028 15.7805L10.7472 15.8132L10.774 15.8447L10.8067 15.8727C11.7831 16.8006 12.8738 17.6003 14.0523 18.2527C15.3998 18.9865 16.2177 19.333 16.7088 19.4777V19.4847C16.8523 19.529 16.983 19.5488 17.1148 19.5488C17.5333 19.5188 17.9295 19.3487 18.2395 19.0658C18.6187 18.7298 18.9395 18.3343 19.1892 17.8945V17.8863C19.4237 17.443 19.3443 17.0253 19.006 16.7418C18.327 16.1473 17.592 15.6199 16.8115 15.1668C16.2888 14.8833 15.758 15.0548 15.5433 15.3418L15.0848 15.9205C14.8492 16.2075 14.4222 16.1678 14.4222 16.1678L14.4105 16.1748C11.2243 15.3617 10.3738 12.1358 10.3738 12.1358C10.3738 12.1358 10.3342 11.6972 10.6293 11.4732L11.2033 11.0112C11.4787 10.7872 11.67 10.2575 11.3748 9.73483C10.9228 8.95483 10.3966 8.22031 9.80332 7.5415C9.67356 7.3821 9.49183 7.27348 9.28999 7.23466M14.6765 5.8335C14.5218 5.8335 14.3734 5.89495 14.264 6.00435C14.1546 6.11375 14.0932 6.26212 14.0932 6.41683C14.0932 6.57154 14.1546 6.71991 14.264 6.82931C14.3734 6.9387 14.5218 7.00016 14.6765 7.00016C16.1512 7.00016 17.3762 7.482 18.3457 8.406C18.8438 8.91116 19.2323 9.50966 19.4867 10.1653C19.7422 10.8222 19.8588 11.5233 19.8285 12.2257C19.822 12.3804 19.8772 12.5313 19.982 12.6453C20.0868 12.7593 20.2326 12.827 20.3873 12.8335C20.542 12.84 20.693 12.7848 20.807 12.68C20.921 12.5752 20.9887 12.4294 20.9952 12.2747C21.03 11.4108 20.8866 10.549 20.574 9.743C20.2599 8.93284 19.7817 8.19642 19.1693 7.58L19.1577 7.56833C17.9548 6.41916 16.4335 5.8335 14.6765 5.8335Z" fill="#C6C0BA"/>
<path d="M14.6361 7.75117C14.4814 7.75117 14.333 7.81262 14.2236 7.92202C14.1142 8.03142 14.0527 8.17979 14.0527 8.3345C14.0527 8.48921 14.1142 8.63758 14.2236 8.74698C14.333 8.85637 14.4814 8.91783 14.6361 8.91783H14.6559C15.7199 8.99367 16.4946 9.34833 17.0371 9.9305C17.5936 10.5302 17.8817 11.2757 17.8596 12.1973C17.856 12.352 17.9141 12.5018 18.0209 12.6137C18.1278 12.7257 18.2748 12.7905 18.4295 12.7941C18.5842 12.7976 18.734 12.7396 18.8459 12.6327C18.9578 12.5258 19.0227 12.3789 19.0262 12.2242C19.0542 11.0143 18.6646 9.97017 17.8922 9.13717V9.13483C17.1024 8.28783 16.0186 7.83983 14.7142 7.75233L14.6944 7.75L14.6361 7.75117Z" fill="#C6C0BA"/>
<path d="M14.6136 9.70538C14.5355 9.69849 14.4569 9.70741 14.3823 9.73159C14.3078 9.75577 14.2389 9.79473 14.1797 9.84613C14.1206 9.89753 14.0724 9.96032 14.038 10.0308C14.0037 10.1012 13.9839 10.1778 13.9798 10.2561C13.9757 10.3344 13.9874 10.4127 14.0143 10.4863C14.0411 10.5599 14.0825 10.6274 14.136 10.6846C14.1895 10.7419 14.254 10.7878 14.3257 10.8196C14.3973 10.8514 14.4746 10.8685 14.5529 10.8697C15.0406 10.8954 15.3521 11.0424 15.5481 11.2395C15.7453 11.4379 15.8923 11.7564 15.9191 12.2545C15.9206 12.3328 15.9378 12.41 15.9697 12.4815C16.0016 12.553 16.0476 12.6173 16.1049 12.6707C16.1622 12.724 16.2297 12.7653 16.3033 12.792C16.3769 12.8187 16.4551 12.8304 16.5333 12.8262C16.6115 12.8221 16.688 12.8022 16.7584 12.7678C16.8287 12.7335 16.8914 12.6853 16.9428 12.6262C16.9941 12.5671 17.033 12.4982 17.0572 12.4238C17.0814 12.3493 17.0903 12.2707 17.0834 12.1927C17.0461 11.4927 16.8268 10.8744 16.3776 10.4194C15.9261 9.96438 15.3113 9.74272 14.6136 9.70538Z" fill="#C6C0BA"/>
<path fill-rule="evenodd" clip-rule="evenodd" d="M8.24475 2.78156C11.9572 1.95172 15.807 1.95172 19.5194 2.78156L19.9149 2.86906C20.9999 3.11229 21.9963 3.65124 22.7936 4.42615C23.591 5.20106 24.1582 6.18167 24.4323 7.25923C25.3755 10.9725 25.3755 14.8626 24.4323 18.5759C24.1582 19.6535 23.591 20.6341 22.7936 21.409C21.9963 22.1839 20.9999 22.7228 19.9149 22.9661L19.5183 23.0536C17.193 23.5728 14.8072 23.7687 12.4284 23.6357L9.33325 26.4054C9.21656 26.5099 9.07397 26.5811 8.92035 26.6117C8.76674 26.6422 8.60774 26.631 8.45994 26.5792C8.31214 26.5273 8.18097 26.4368 8.08012 26.3169C7.97927 26.1971 7.91243 26.0524 7.88659 25.8979L7.37442 22.8389C6.39257 22.5328 5.50551 21.9803 4.79783 21.234C4.09016 20.4877 3.58548 19.5726 3.33192 18.5759C2.38871 14.8626 2.38871 10.9725 3.33192 7.25923C3.60602 6.18167 4.17319 5.20106 4.97055 4.42615C5.76791 3.65124 6.7643 3.11229 7.84925 2.86906L8.24475 2.78156ZM19.1379 4.4884C15.6767 3.71467 12.0874 3.71467 8.62625 4.4884L8.22959 4.57706C7.46071 4.74994 6.75467 5.13224 6.18964 5.68161C5.62462 6.23098 5.22266 6.92601 5.02825 7.68973C4.15675 11.1205 4.15675 14.7147 5.02825 18.1454C5.22275 18.9093 5.62489 19.6044 6.19013 20.1538C6.75537 20.7032 7.46166 21.0854 8.23075 21.2581L8.33575 21.2814C8.50561 21.3194 8.66028 21.4072 8.77999 21.5335C8.89969 21.6599 8.97899 21.8191 9.00775 21.9907L9.35075 24.0417L11.5348 22.0876C11.622 22.0093 11.724 21.9493 11.8348 21.9113C11.9457 21.8732 12.063 21.8578 12.1799 21.8659C14.5122 22.0306 16.8559 21.8557 19.1379 21.3467L19.5334 21.2581C20.3025 21.0854 21.0088 20.7032 21.574 20.1538C22.1393 19.6044 22.5414 18.9093 22.7359 18.1454C23.6063 14.7154 23.6063 11.1209 22.7359 7.68973C22.5414 6.92586 22.1393 6.23073 21.574 5.68135C21.0088 5.13196 20.3025 4.74975 19.5334 4.57706L19.1379 4.4884Z" fill="#C6C0BA"/>
</svg>
