<svg width="28" height="28" viewBox="0 0 28 28" fill="none" xmlns="http://www.w3.org/2000/svg">
<path d="M9.29232 7.23565C9.07549 7.20389 8.85433 7.24755 8.66582 7.35931H8.64949C8.21199 7.61598 7.81766 7.93915 7.48166 8.31948C7.20166 8.64265 7.04999 8.96931 7.01032 9.28431C6.98699 9.47098 7.00332 9.65998 7.05816 9.83848L7.07916 9.85015C7.39416 10.7753 7.80482 11.6655 8.30649 12.5031C8.95364 13.6795 9.74963 14.7677 10.6748 15.7406L10.7028 15.7803L10.7472 15.813L10.774 15.8445L10.8067 15.8725C11.7831 16.8004 12.8738 17.6001 14.0523 18.2525C15.3998 18.9863 16.2177 19.3328 16.7088 19.4775V19.4845C16.8523 19.5288 16.983 19.5486 17.1148 19.5486C17.5333 19.5186 17.9295 19.3485 18.2395 19.0656C18.6187 18.7296 18.9395 18.3341 19.1892 17.8943V17.8861C19.4237 17.4428 19.3443 17.0251 19.006 16.7416C18.327 16.1471 17.592 15.6197 16.8115 15.1666C16.2888 14.8831 15.758 15.0546 15.5433 15.3416L15.0848 15.9203C14.8492 16.2073 14.4222 16.1676 14.4222 16.1676L14.4105 16.1746C11.2243 15.3615 10.3738 12.1356 10.3738 12.1356C10.3738 12.1356 10.3342 11.697 10.6293 11.473L11.2033 11.011C11.4787 10.787 11.67 10.2573 11.3748 9.73465C10.9228 8.95464 10.3966 8.22012 9.80332 7.54131C9.67356 7.38192 9.49183 7.27329 9.28999 7.23448M14.6765 5.83331C14.5218 5.83331 14.3734 5.89477 14.264 6.00417C14.1546 6.11356 14.0932 6.26194 14.0932 6.41665C14.0932 6.57136 14.1546 6.71973 14.264 6.82913C14.3734 6.93852 14.5218 6.99998 14.6765 6.99998C16.1512 6.99998 17.3762 7.48181 18.3457 8.40581C18.8438 8.91098 19.2323 9.50948 19.4867 10.1651C19.7422 10.822 19.8588 11.5231 19.8285 12.2255C19.822 12.3802 19.8772 12.5311 19.982 12.6451C20.0868 12.7591 20.2326 12.8268 20.3873 12.8333C20.542 12.8398 20.693 12.7846 20.807 12.6798C20.921 12.575 20.9887 12.4292 20.9952 12.2745C21.03 11.4106 20.8866 10.5489 20.574 9.74281C20.2599 8.93266 19.7817 8.19623 19.1693 7.57981L19.1577 7.56815C17.9548 6.41898 16.4335 5.83331 14.6765 5.83331Z" fill="white"/>
<path d="M14.6361 7.75135C14.4814 7.75135 14.333 7.81281 14.2236 7.9222C14.1142 8.0316 14.0527 8.17997 14.0527 8.33468C14.0527 8.48939 14.1142 8.63777 14.2236 8.74716C14.333 8.85656 14.4814 8.91802 14.6361 8.91802H14.6559C15.7199 8.99385 16.4946 9.34852 17.0371 9.93068C17.5936 10.5303 17.8817 11.2758 17.8596 12.1975C17.856 12.3522 17.9141 12.502 18.0209 12.6139C18.1278 12.7258 18.2748 12.7907 18.4295 12.7943C18.5842 12.7978 18.734 12.7398 18.8459 12.6329C18.9578 12.526 19.0227 12.3791 19.0262 12.2243C19.0542 11.0145 18.6646 9.97035 17.8922 9.13735V9.13502C17.1024 8.28802 16.0186 7.84002 14.7142 7.75252L14.6944 7.75018L14.6361 7.75135Z" fill="white"/>
<path d="M14.6141 9.7055C14.536 9.69862 14.4574 9.70753 14.3828 9.73171C14.3083 9.75589 14.2394 9.79485 14.1802 9.84625C14.1211 9.89765 14.0729 9.96045 14.0385 10.0309C14.0042 10.1013 13.9844 10.178 13.9803 10.2562C13.9762 10.3345 13.9879 10.4128 14.0148 10.4864C14.0416 10.56 14.083 10.6275 14.1365 10.6848C14.19 10.742 14.2545 10.7879 14.3261 10.8197C14.3978 10.8515 14.4751 10.8686 14.5534 10.8698C15.0411 10.8955 15.3526 11.0425 15.5486 11.2397C15.7458 11.438 15.8928 11.7565 15.9196 12.2547C15.9211 12.333 15.9383 12.4101 15.9702 12.4816C16.0021 12.5531 16.0481 12.6175 16.1054 12.6708C16.1627 12.7242 16.2302 12.7654 16.3038 12.7921C16.3774 12.8189 16.4556 12.8305 16.5338 12.8263C16.612 12.8222 16.6885 12.8023 16.7589 12.768C16.8292 12.7336 16.8919 12.6854 16.9433 12.6263C16.9946 12.5672 17.0335 12.4984 17.0577 12.4239C17.0818 12.3494 17.0908 12.2708 17.0839 12.1928C17.0466 11.4928 16.8273 10.8745 16.3781 10.4195C15.9266 9.9645 15.3118 9.74284 14.6141 9.7055Z" fill="white"/>
<path fill-rule="evenodd" clip-rule="evenodd" d="M8.24524 2.78132C11.9577 1.95147 15.8075 1.95147 19.5199 2.78132L19.9154 2.86882C21.0004 3.11204 21.9967 3.65099 22.7941 4.42591C23.5915 5.20082 24.1586 6.18142 24.4327 7.25899C25.3759 10.9722 25.3759 14.8624 24.4327 18.5757C24.1586 19.6532 23.5915 20.6338 22.7941 21.4087C21.9967 22.1836 21.0004 22.7226 19.9154 22.9658L19.5187 23.0533C17.1935 23.5725 14.8077 23.7684 12.4289 23.6355L9.33374 26.4052C9.21705 26.5096 9.07446 26.5809 8.92084 26.6114C8.76723 26.642 8.60822 26.6308 8.46043 26.5789C8.31263 26.5271 8.18146 26.4365 8.08061 26.3167C7.97976 26.1968 7.91292 26.0521 7.88707 25.8977L7.37491 22.8387C6.39306 22.5326 5.50599 21.98 4.79832 21.2338C4.09065 20.4875 3.58597 19.5724 3.33241 18.5757C2.3892 14.8624 2.3892 10.9722 3.33241 7.25899C3.6065 6.18142 4.17368 5.20082 4.97104 4.42591C5.7684 3.65099 6.76479 3.11204 7.84974 2.86882L8.24524 2.78132ZM19.1384 4.48815C15.6772 3.71443 12.0879 3.71443 8.62674 4.48815L8.23007 4.57682C7.46119 4.7497 6.75516 5.13199 6.19013 5.68137C5.62511 6.23074 5.22314 6.92576 5.02874 7.68949C4.15723 11.1202 4.15723 14.7144 5.02874 18.1452C5.22324 18.909 5.62538 19.6042 6.19062 20.1535C6.75586 20.7029 7.46215 21.0851 8.23124 21.2578L8.33624 21.2812C8.5061 21.3191 8.66077 21.4069 8.78048 21.5333C8.90018 21.6596 8.97948 21.8188 9.00824 21.9905L9.35124 24.0415L11.5352 22.0873C11.6225 22.0091 11.7245 21.9491 11.8353 21.911C11.9462 21.8729 12.0635 21.8575 12.1804 21.8657C14.5126 22.0303 16.8564 21.8554 19.1384 21.3465L19.5339 21.2578C20.303 21.0851 21.0093 20.7029 21.5745 20.1535C22.1398 19.6042 22.5419 18.909 22.7364 18.1452C23.6067 14.7152 23.6067 11.1207 22.7364 7.68949C22.5419 6.92562 22.1398 6.23049 21.5745 5.6811C21.0093 5.13171 20.303 4.74951 19.5339 4.57682L19.1384 4.48815Z" fill="white"/>
</svg>
