<svg width="24" height="24" viewBox="0 0 24 24" fill="none" xmlns="http://www.w3.org/2000/svg">
<path d="M2.19225 24C1.57775 24 1.05875 23.7882 0.63525 23.3647C0.21175 22.9412 0 22.4222 0 21.8077V13.3845H1.26938V21.8077C1.26938 22.0385 1.3655 22.25 1.55775 22.4423C1.75 22.6345 1.9615 22.7306 2.19225 22.7306H10.6155V24H2.19225ZM13.3845 24V22.7306H21.8077C22.0385 22.7306 22.25 22.6345 22.4423 22.4423C22.6345 22.25 22.7306 22.0385 22.7306 21.8077V13.3845H24V21.8077C24 22.4222 23.7882 22.9412 23.3647 23.3647C22.9412 23.7882 22.4222 24 21.8077 24H13.3845ZM5.21362 18.8962L8.14425 15.1155L10.7865 18.3675L14.8556 13.2847L19.0598 18.8962H5.21362ZM0 10.6155V2.19225C0 1.57775 0.21175 1.05875 0.63525 0.63525C1.05875 0.21175 1.57775 0 2.19225 0H10.6155V1.26937H2.19225C1.9615 1.26937 1.75 1.3655 1.55775 1.55775C1.3655 1.75 1.26938 1.9615 1.26938 2.19225V10.6155H0ZM22.7306 10.6155V2.19225C22.7306 1.9615 22.6345 1.75 22.4423 1.55775C22.25 1.3655 22.0385 1.26937 21.8077 1.26937H13.3845V0H21.8077C22.4222 0 22.9412 0.21175 23.3647 0.63525C23.7882 1.05875 24 1.57775 24 2.19225V10.6155H22.7306ZM17.0002 8.59612C16.5435 8.59612 16.1632 8.44312 15.8595 8.13713C15.5557 7.83087 15.4039 7.44937 15.4039 6.99262C15.4039 6.53562 15.5569 6.15537 15.8629 5.85187C16.1691 5.54812 16.5506 5.39625 17.0074 5.39625C17.4644 5.39625 17.8446 5.54925 18.1481 5.85525C18.4519 6.1615 18.6038 6.543 18.6038 6.99975C18.6038 7.4565 18.4508 7.83675 18.1447 8.1405C17.8385 8.44425 17.457 8.59612 17.0002 8.59612Z" fill="#655653"/>
</svg>
