<svg width="80" height="56" viewBox="0 0 80 56" fill="none" xmlns="http://www.w3.org/2000/svg">
<path d="M39.9939 55.3935C38.5647 55.3935 37.3201 54.8634 36.2601 53.8034C35.2 52.7433 34.67 51.4987 34.67 50.0695C34.67 48.6397 35.2 47.3948 36.2601 46.3347C37.3201 45.2747 38.5647 44.7447 39.9939 44.7447C41.4231 44.7447 42.6677 45.2747 43.7278 46.3347C44.7878 47.3948 45.3179 48.6397 45.3179 50.0695C45.3179 51.4987 44.7878 52.7433 43.7278 53.8034C42.6677 54.8634 41.4231 55.3935 39.9939 55.3935ZM39.9939 22.4481C44.4742 22.4481 48.6545 23.2456 52.5349 24.8407C56.4153 26.4351 60.032 28.7482 63.3848 31.7799C63.8257 32.1921 64.0654 32.6872 64.1041 33.2653C64.1421 33.8433 63.9407 34.3531 63.4999 34.7945C63.0584 35.236 62.5524 35.4256 61.9818 35.3632C61.4106 35.3009 60.8975 35.0633 60.4423 34.6505C57.4249 32.0029 54.1883 30.0028 50.7325 28.6503C47.2761 27.2972 43.6966 26.6206 39.9939 26.6206C36.2912 26.6206 32.7117 27.2972 29.2553 28.6503C25.7996 30.0028 22.563 32.0029 19.5456 34.6505C19.0904 35.0633 18.5772 35.3009 18.006 35.3632C17.4355 35.4256 16.9295 35.236 16.488 34.7945C16.0471 34.4011 15.8457 33.9035 15.8837 33.3017C15.9224 32.6994 16.1622 32.1921 16.603 31.7799C19.9559 28.7482 23.5725 26.4351 27.4529 24.8407C31.3333 23.2456 35.5137 22.4481 39.9939 22.4481ZM39.9939 0C47.6874 0 54.8571 1.42826 61.5029 4.28478C68.1488 7.14067 74.0692 10.9743 79.264 15.7857C79.7049 16.2122 79.9481 16.7266 79.9936 17.329C80.0391 17.9307 79.8415 18.4523 79.4006 18.8938C78.9591 19.3827 78.4063 19.5638 77.7422 19.4372C77.0775 19.31 76.4936 19.0089 75.9904 18.5337C71.0063 14.0728 65.4925 10.564 59.4489 8.00742C53.4054 5.45084 46.9204 4.17254 39.9939 4.17254C33.0674 4.17254 26.5824 5.45084 20.5389 8.00742C14.4954 10.564 8.98158 14.0728 3.99749 18.5337C3.49427 19.0089 2.9259 19.31 2.29237 19.4372C1.65945 19.5638 1.09825 19.3827 0.608759 18.8938C0.167904 18.4523 -0.0335053 17.9307 0.00453176 17.329C0.0431923 16.7266 0.282951 16.2122 0.723806 15.7857C5.91867 10.9743 11.839 7.14067 18.4849 4.28478C25.1308 1.42826 32.3005 0 39.9939 0Z" fill="white"/>
</svg>
