<svg width="23" height="16" viewBox="0 0 23 16" fill="none" xmlns="http://www.w3.org/2000/svg">
<path d="M11.4983 16C11.0874 16 10.7295 15.8469 10.4248 15.5407C10.12 15.2345 9.96762 14.875 9.96762 14.4622C9.96762 14.0492 10.12 13.6896 10.4248 13.3834C10.7295 13.0773 11.0874 12.9242 11.4983 12.9242C11.9091 12.9242 12.267 13.0773 12.5717 13.3834C12.8765 13.6896 13.0289 14.0492 13.0289 14.4622C13.0289 14.875 12.8765 15.2345 12.5717 15.5407C12.267 15.8469 11.9091 16 11.4983 16ZM11.4983 6.48397C12.7863 6.48397 13.9882 6.71433 15.1038 7.17505C16.2194 7.63559 17.2592 8.30371 18.2231 9.17941C18.3499 9.29846 18.4188 9.44147 18.4299 9.60843C18.4409 9.77539 18.383 9.92263 18.2562 10.0501C18.1293 10.1777 17.9838 10.2324 17.8198 10.2144C17.6556 10.1964 17.508 10.1278 17.3771 10.0085C16.5096 9.2438 15.5791 8.66609 14.5856 8.27543C13.5919 7.88459 12.5628 7.68918 11.4983 7.68918C10.4337 7.68918 9.40462 7.88459 8.41091 8.27543C7.41737 8.66609 6.48686 9.2438 5.61936 10.0085C5.48849 10.1278 5.34095 10.1964 5.17673 10.2144C5.0127 10.2324 4.86722 10.1777 4.74029 10.0501C4.61355 9.9365 4.55564 9.79277 4.56658 9.61897C4.57769 9.44498 4.64662 9.29846 4.77337 9.17941C5.73732 8.30371 6.7771 7.63559 7.89272 7.17505C9.00833 6.71433 10.2102 6.48397 11.4983 6.48397ZM11.4983 0C13.7101 0 15.7714 0.412542 17.6821 1.23763C19.5928 2.06253 21.2949 3.16985 22.7884 4.55958C22.9152 4.68278 22.9851 4.83137 22.9982 5.00535C23.0112 5.17916 22.9544 5.32982 22.8277 5.45734C22.7007 5.59855 22.5418 5.65087 22.3509 5.61431C22.1598 5.57756 21.9919 5.49057 21.8472 5.35333C20.4143 4.06482 18.8291 3.05134 17.0916 2.31289C15.3541 1.57443 13.4896 1.20521 11.4983 1.20521C9.50689 1.20521 7.64245 1.57443 5.90494 2.31289C4.16743 3.05134 2.58221 4.06482 1.14928 5.35333C1.0046 5.49057 0.841196 5.57756 0.659055 5.61431C0.477093 5.65087 0.315748 5.59855 0.175018 5.45734C0.0482724 5.32982 -0.00963277 5.17916 0.00130288 5.00535C0.0124178 4.83137 0.0813483 4.68278 0.208094 4.55958C1.70162 3.16985 3.40372 2.06253 5.31441 1.23763C7.2251 0.412542 9.28638 0 11.4983 0Z" fill="#655653"/>
</svg>
