<svg width="80" height="80" viewBox="0 0 80 80" fill="none" xmlns="http://www.w3.org/2000/svg">
<path d="M40.0074 80C34.5182 80 29.3463 78.9502 24.4916 76.8505C19.6368 74.7509 15.3916 71.8839 11.7558 68.2495C8.12 64.6151 5.25158 60.3716 3.15053 55.5189C1.05017 50.667 0 45.4965 0 40.0074C0 34.4747 1.04982 29.2744 3.14947 24.4063C5.24912 19.5382 8.11614 15.3039 11.7505 11.7032C15.3849 8.10246 19.6284 5.25158 24.4811 3.15053C29.333 1.05017 34.5035 0 39.9926 0C45.5253 0 50.7256 1.04982 55.5937 3.14947C60.4618 5.24912 64.6961 8.0986 68.2969 11.6979C71.8976 15.2972 74.7484 19.5298 76.8495 24.3958C78.9498 29.2618 80 34.4607 80 39.9926C80 45.4818 78.9502 50.6537 76.8505 55.5084C74.7509 60.3632 71.9014 64.6084 68.3021 68.2442C64.7028 71.88 60.4702 74.7484 55.6042 76.8495C50.7382 78.9498 45.5393 80 40.0074 80ZM40 75.2221C49.8028 75.2221 58.1239 71.7919 64.9632 64.9316C71.8025 58.0705 75.2221 49.76 75.2221 40C75.2221 30.1972 71.8025 21.8761 64.9632 15.0368C58.1239 8.19754 49.8028 4.7779 40 4.7779C30.24 4.7779 21.9295 8.19754 15.0684 15.0368C8.20807 21.8761 4.77789 30.1972 4.77789 40C4.77789 49.76 8.20807 58.0705 15.0684 64.9316C21.9295 71.7919 30.24 75.2221 40 75.2221Z" fill="white"/>
</svg>
